<svg width="28" height="28" viewBox="0 0 28 28" fill="none" xmlns="http://www.w3.org/2000/svg">
<g clip-path="url(#clip0_15918_46540)">
<path d="M1 8C1 6.89543 1.89543 6 3 6H25C26.1046 6 27 6.89543 27 8V17C27 18.1046 26.1046 19 25 19H3C1.89543 19 1 18.1046 1 17V8Z" fill="#DDF3FF"/>
<circle cx="23" cy="11" r="1" fill="white"/>
<mask id="path-3-inside-1_15918_46540" fill="white">
<path fill-rule="evenodd" clip-rule="evenodd" d="M26.3 13V14C26.3 15.4623 26.2964 16.388 26.2053 17.0653C26.1208 17.6937 25.9901 17.8484 25.9192 17.9192C25.8484 17.9901 25.6937 18.1208 25.0653 18.2053C25.0438 18.2082 25.022 18.211 25 18.2137V17C25 15.8954 24.1046 15 23 15H5C3.89543 15 3 15.8954 3 17V18.2137C2.97798 18.211 2.95622 18.2082 2.93471 18.2053C2.30627 18.1208 2.15159 17.9901 2.08076 17.9192C2.00993 17.8484 1.87917 17.6937 1.79468 17.0653C1.70361 16.388 1.7 15.4623 1.7 14V13C1.7 11.0663 1.70361 9.78708 1.83129 8.83743C1.95239 7.93669 2.15638 7.59093 2.37366 7.37365C2.59093 7.15638 2.93669 6.95239 3.83743 6.83129C4.78708 6.70361 6.06632 6.7 8 6.7L20 6.7C21.9337 6.7 23.2129 6.70361 24.1626 6.83129C25.0633 6.95239 25.4091 7.15638 25.6263 7.37366C25.8436 7.59093 26.0476 7.93669 26.1687 8.83743C26.2964 9.78708 26.3 11.0663 26.3 13ZM3 19.9239C2.02491 19.828 1.36856 19.6112 0.878679 19.1213C0 18.2426 0 16.8284 0 14V13C0 9.22876 0 7.34315 1.17157 6.17157C2.34315 5 4.22876 5 8 5H20C23.7712 5 25.6569 5 26.8284 6.17157C28 7.34315 28 9.22877 28 13V14C28 16.8284 28 18.2426 27.1213 19.1213C26.6314 19.6112 25.9751 19.828 25 19.9239V20H22.0868C22.058 20 22.0291 20 22 20L6 20H3V19.9239ZM21 11C21 12.1043 21.8957 13 23 13C24.1043 13 25 12.1043 25 11C25 9.89565 24.1043 9 23 9C21.8957 9 21 9.89565 21 11ZM22.3043 10.9913C22.3043 10.6087 22.6174 10.2957 23 10.2957C23.3826 10.2957 23.6957 10.6087 23.6957 10.9913C23.6957 11.3739 23.3826 11.687 23 11.687C22.6174 11.687 22.3043 11.3739 22.3043 10.9913ZM9.32766 21.7852C9.62202 22.0766 9.62441 22.5515 9.33299 22.8458L8.54278 23.644C8.42035 23.7677 8.45857 23.9755 8.61699 24.0475L9.00372 24.2233C10.1127 24.7274 10.3802 26.182 9.5232 27.0476L8.73299 27.8458C8.44157 28.1402 7.9667 28.1426 7.67234 27.8512C7.37798 27.5598 7.37559 27.0849 7.66701 26.7905L8.45722 25.9923C8.57966 25.8687 8.54143 25.6609 8.38301 25.5889L7.99628 25.4131C6.88734 24.909 6.61979 23.4544 7.4768 22.5887L8.26701 21.7905C8.55843 21.4962 9.0333 21.4938 9.32766 21.7852ZM14.333 22.8458C14.6244 22.5515 14.622 22.0766 14.3277 21.7852C14.0333 21.4938 13.5584 21.4962 13.267 21.7905L12.4768 22.5887C11.6198 23.4544 11.8873 24.909 12.9963 25.4131L13.383 25.5889C13.5414 25.6609 13.5797 25.8687 13.4572 25.9923L12.667 26.7905C12.3756 27.0849 12.378 27.5598 12.6723 27.8512C12.9667 28.1426 13.4416 28.1402 13.733 27.8458L14.5232 27.0476C15.3802 26.182 15.1127 24.7274 14.0037 24.2233L13.617 24.0475C13.4586 23.9755 13.4203 23.7677 13.5428 23.644L14.333 22.8458ZM19.3277 21.7852C19.622 22.0766 19.6244 22.5515 19.333 22.8458L18.5428 23.644C18.4203 23.7677 18.4586 23.9755 18.617 24.0475L19.0037 24.2233C20.1127 24.7274 20.3802 26.182 19.5232 27.0476L18.733 27.8458C18.4416 28.1402 17.9667 28.1426 17.6723 27.8512C17.378 27.5598 17.3756 27.0849 17.667 26.7905L18.4572 25.9923C18.5797 25.8687 18.5414 25.6609 18.383 25.5889L17.9963 25.4131C16.8873 24.909 16.6198 23.4544 17.4768 22.5887L18.267 21.7905C18.5584 21.4962 19.0333 21.4938 19.3277 21.7852Z"/>
</mask>
<path fill-rule="evenodd" clip-rule="evenodd" d="M26.3 13V14C26.3 15.4623 26.2964 16.388 26.2053 17.0653C26.1208 17.6937 25.9901 17.8484 25.9192 17.9192C25.8484 17.9901 25.6937 18.1208 25.0653 18.2053C25.0438 18.2082 25.022 18.211 25 18.2137V17C25 15.8954 24.1046 15 23 15H5C3.89543 15 3 15.8954 3 17V18.2137C2.97798 18.211 2.95622 18.2082 2.93471 18.2053C2.30627 18.1208 2.15159 17.9901 2.08076 17.9192C2.00993 17.8484 1.87917 17.6937 1.79468 17.0653C1.70361 16.388 1.7 15.4623 1.7 14V13C1.7 11.0663 1.70361 9.78708 1.83129 8.83743C1.95239 7.93669 2.15638 7.59093 2.37366 7.37365C2.59093 7.15638 2.93669 6.95239 3.83743 6.83129C4.78708 6.70361 6.06632 6.7 8 6.7L20 6.7C21.9337 6.7 23.2129 6.70361 24.1626 6.83129C25.0633 6.95239 25.4091 7.15638 25.6263 7.37366C25.8436 7.59093 26.0476 7.93669 26.1687 8.83743C26.2964 9.78708 26.3 11.0663 26.3 13ZM3 19.9239C2.02491 19.828 1.36856 19.6112 0.878679 19.1213C0 18.2426 0 16.8284 0 14V13C0 9.22876 0 7.34315 1.17157 6.17157C2.34315 5 4.22876 5 8 5H20C23.7712 5 25.6569 5 26.8284 6.17157C28 7.34315 28 9.22877 28 13V14C28 16.8284 28 18.2426 27.1213 19.1213C26.6314 19.6112 25.9751 19.828 25 19.9239V20H22.0868C22.058 20 22.0291 20 22 20L6 20H3V19.9239ZM21 11C21 12.1043 21.8957 13 23 13C24.1043 13 25 12.1043 25 11C25 9.89565 24.1043 9 23 9C21.8957 9 21 9.89565 21 11ZM22.3043 10.9913C22.3043 10.6087 22.6174 10.2957 23 10.2957C23.3826 10.2957 23.6957 10.6087 23.6957 10.9913C23.6957 11.3739 23.3826 11.687 23 11.687C22.6174 11.687 22.3043 11.3739 22.3043 10.9913ZM9.32766 21.7852C9.62202 22.0766 9.62441 22.5515 9.33299 22.8458L8.54278 23.644C8.42035 23.7677 8.45857 23.9755 8.61699 24.0475L9.00372 24.2233C10.1127 24.7274 10.3802 26.182 9.5232 27.0476L8.73299 27.8458C8.44157 28.1402 7.9667 28.1426 7.67234 27.8512C7.37798 27.5598 7.37559 27.0849 7.66701 26.7905L8.45722 25.9923C8.57966 25.8687 8.54143 25.6609 8.38301 25.5889L7.99628 25.4131C6.88734 24.909 6.61979 23.4544 7.4768 22.5887L8.26701 21.7905C8.55843 21.4962 9.0333 21.4938 9.32766 21.7852ZM14.333 22.8458C14.6244 22.5515 14.622 22.0766 14.3277 21.7852C14.0333 21.4938 13.5584 21.4962 13.267 21.7905L12.4768 22.5887C11.6198 23.4544 11.8873 24.909 12.9963 25.4131L13.383 25.5889C13.5414 25.6609 13.5797 25.8687 13.4572 25.9923L12.667 26.7905C12.3756 27.0849 12.378 27.5598 12.6723 27.8512C12.9667 28.1426 13.4416 28.1402 13.733 27.8458L14.5232 27.0476C15.3802 26.182 15.1127 24.7274 14.0037 24.2233L13.617 24.0475C13.4586 23.9755 13.4203 23.7677 13.5428 23.644L14.333 22.8458ZM19.3277 21.7852C19.622 22.0766 19.6244 22.5515 19.333 22.8458L18.5428 23.644C18.4203 23.7677 18.4586 23.9755 18.617 24.0475L19.0037 24.2233C20.1127 24.7274 20.3802 26.182 19.5232 27.0476L18.733 27.8458C18.4416 28.1402 17.9667 28.1426 17.6723 27.8512C17.378 27.5598 17.3756 27.0849 17.667 26.7905L18.4572 25.9923C18.5797 25.8687 18.5414 25.6609 18.383 25.5889L17.9963 25.4131C16.8873 24.909 16.6198 23.4544 17.4768 22.5887L18.267 21.7905C18.5584 21.4962 19.0333 21.4938 19.3277 21.7852Z" fill="white"/>
<path d="M26.2053 17.0653L27.8902 17.2918V17.2918L26.2053 17.0653ZM25.9192 17.9192L27.1213 19.1213L27.1213 19.1213L25.9192 17.9192ZM25.0653 18.2053L24.8388 16.5205L24.8387 16.5205L25.0653 18.2053ZM25 18.2137H23.3V20.1365L25.2082 19.9009L25 18.2137ZM3 18.2137L2.79176 19.9009L4.7 20.1365V18.2137H3ZM2.93471 18.2053L3.16125 16.5205L3.16122 16.5205L2.93471 18.2053ZM2.08076 17.9192L0.878679 19.1213L0.878687 19.1213L2.08076 17.9192ZM1.79468 17.0653L3.47952 16.8388L3.47952 16.8388L1.79468 17.0653ZM1.7 14H3.4H1.7ZM1.7 13H3.57628e-07H1.7ZM1.83129 8.83743L3.51613 9.06396L3.51613 9.06395L1.83129 8.83743ZM2.37366 7.37365L3.57574 8.57574L3.57574 8.57573L2.37366 7.37365ZM3.83743 6.83129L3.61091 5.14645L3.61091 5.14645L3.83743 6.83129ZM8 6.7V8.4V6.7ZM20 6.7V5V6.7ZM24.1626 6.83129L24.3891 5.14645V5.14645L24.1626 6.83129ZM25.6263 7.37366L24.4243 8.57573L24.4243 8.57574L25.6263 7.37366ZM26.1687 8.83743L27.8536 8.61092V8.61091L26.1687 8.83743ZM0.878679 19.1213L-0.323404 20.3234L-0.323403 20.3234L0.878679 19.1213ZM3 19.9239H4.7V18.3829L3.16641 18.232L3 19.9239ZM1.17157 6.17157L2.37365 7.37365L2.37366 7.37365L1.17157 6.17157ZM26.8284 6.17157L25.6263 7.37365L25.6263 7.37366L26.8284 6.17157ZM27.1213 19.1213L25.9192 17.9192L25.9192 17.9192L27.1213 19.1213ZM25 19.9239L24.8336 18.232L23.3 18.3829V19.9239H25ZM25 20V21.7H26.7V20H25ZM22 20V21.7V20ZM6 20V18.3V20ZM3 20H1.3V21.7H3V20ZM9.33299 22.8458L10.5411 24.0419H10.5411L9.33299 22.8458ZM9.32766 21.7852L8.13163 22.9933L8.13164 22.9933L9.32766 21.7852ZM8.54278 23.644L7.33467 22.448L7.33467 22.448L8.54278 23.644ZM8.61699 24.0475L7.91351 25.5951L7.91352 25.5951L8.61699 24.0475ZM9.00372 24.2233L9.70718 22.6757H9.70718L9.00372 24.2233ZM9.5232 27.0476L10.7313 28.2437H10.7313L9.5232 27.0476ZM8.73299 27.8458L9.94109 29.0419V29.0419L8.73299 27.8458ZM7.67234 27.8512L8.86837 26.6431L8.86836 26.6431L7.67234 27.8512ZM7.66701 26.7905L8.87512 27.9865L7.66701 26.7905ZM8.45722 25.9923L9.66533 27.1884L9.66533 27.1884L8.45722 25.9923ZM8.38301 25.5889L7.67955 27.1365L7.67955 27.1365L8.38301 25.5889ZM7.99628 25.4131L7.29282 26.9607L7.99628 25.4131ZM7.4768 22.5887L6.26869 21.3927L7.4768 22.5887ZM8.26701 21.7905L7.05891 20.5945L7.0589 20.5945L8.26701 21.7905ZM14.3277 21.7852L13.1316 22.9933L13.1316 22.9933L14.3277 21.7852ZM14.333 22.8458L15.5411 24.0419H15.5411L14.333 22.8458ZM13.267 21.7905L12.0589 20.5945L12.0589 20.5945L13.267 21.7905ZM12.4768 22.5887L13.6849 23.7847L12.4768 22.5887ZM12.9963 25.4131L12.2928 26.9607L12.9963 25.4131ZM13.383 25.5889L12.6796 27.1365L12.6796 27.1365L13.383 25.5889ZM13.4572 25.9923L14.6653 27.1884L14.6653 27.1884L13.4572 25.9923ZM12.667 26.7905L11.4589 25.5945H11.4589L12.667 26.7905ZM12.6723 27.8512L13.8684 26.6431L13.8684 26.6431L12.6723 27.8512ZM13.733 27.8458L14.9411 29.0419V29.0419L13.733 27.8458ZM14.5232 27.0476L15.7313 28.2437H15.7313L14.5232 27.0476ZM14.0037 24.2233L14.7072 22.6757H14.7072L14.0037 24.2233ZM13.617 24.0475L12.9135 25.5951L12.9135 25.5951L13.617 24.0475ZM13.5428 23.644L12.3347 22.448L12.3347 22.448L13.5428 23.644ZM19.333 22.8458L18.1249 21.6498L18.1249 21.6498L19.333 22.8458ZM19.3277 21.7852L18.1316 22.9933L18.1316 22.9933L19.3277 21.7852ZM18.5428 23.644L19.7509 24.8401L19.7509 24.8401L18.5428 23.644ZM18.617 24.0475L17.9135 25.5951L17.9135 25.5951L18.617 24.0475ZM19.0037 24.2233L19.7072 22.6757H19.7072L19.0037 24.2233ZM19.5232 27.0476L20.7313 28.2437L19.5232 27.0476ZM18.733 27.8458L19.9411 29.0419L19.9411 29.0419L18.733 27.8458ZM17.6723 27.8512L18.8684 26.6431L18.8684 26.6431L17.6723 27.8512ZM17.667 26.7905L16.4589 25.5945L17.667 26.7905ZM18.4572 25.9923L19.6653 27.1884L19.6653 27.1883L18.4572 25.9923ZM18.383 25.5889L17.6796 27.1365L17.6796 27.1365L18.383 25.5889ZM17.9963 25.4131L17.2928 26.9607L17.9963 25.4131ZM17.4768 22.5887L18.6849 23.7847L17.4768 22.5887ZM18.267 21.7905L17.0589 20.5945L17.0589 20.5945L18.267 21.7905ZM28 14V13H24.6V14H28ZM27.8902 17.2918C28.0001 16.4744 28 15.412 28 14H24.6C24.6 15.5126 24.5927 16.3016 24.5205 16.8388L27.8902 17.2918ZM27.1213 19.1213C27.5585 18.6841 27.7797 18.1133 27.8902 17.2918L24.5205 16.8388C24.5057 16.949 24.4917 17.0169 24.4829 17.0528C24.4742 17.0888 24.4728 17.084 24.486 17.0521C24.5004 17.0174 24.5296 16.9562 24.5805 16.882C24.6057 16.8454 24.6323 16.8111 24.6593 16.7797C24.686 16.7487 24.7081 16.7262 24.7171 16.7172L27.1213 19.1213ZM25.2918 19.8902C26.1133 19.7797 26.6841 19.5585 27.1213 19.1213L24.7172 16.7172C24.7262 16.7081 24.7487 16.686 24.7797 16.6593C24.8111 16.6323 24.8454 16.6057 24.882 16.5805C24.9562 16.5296 25.0174 16.5004 25.0521 16.4861C25.084 16.4728 25.0888 16.4742 25.0528 16.4829C25.0169 16.4917 24.949 16.5057 24.8388 16.5205L25.2918 19.8902ZM25.2082 19.9009C25.2362 19.8975 25.2641 19.8939 25.2918 19.8902L24.8387 16.5205C24.8235 16.5225 24.8078 16.5246 24.7918 16.5265L25.2082 19.9009ZM23.3 17V18.2137H26.7V17H23.3ZM23 16.7C23.1657 16.7 23.3 16.8343 23.3 17H26.7C26.7 14.9565 25.0435 13.3 23 13.3V16.7ZM5 16.7H23V13.3H5V16.7ZM4.7 17C4.7 16.8343 4.83431 16.7 5 16.7V13.3C2.95655 13.3 1.3 14.9565 1.3 17H4.7ZM4.7 18.2137V17H1.3V18.2137H4.7ZM2.70816 19.8902C2.73594 19.8939 2.76381 19.8975 2.79176 19.9009L3.20824 16.5265C3.19215 16.5246 3.17649 16.5225 3.16125 16.5205L2.70816 19.8902ZM0.878687 19.1213C1.31587 19.5585 1.88669 19.7797 2.70819 19.8902L3.16122 16.5205C3.05105 16.5057 2.98311 16.4917 2.94723 16.4829C2.91119 16.4742 2.91595 16.4728 2.94795 16.486C2.98261 16.5004 3.04381 16.5296 3.11801 16.5805C3.15464 16.6057 3.18889 16.6323 3.22027 16.6593C3.25131 16.686 3.27379 16.7081 3.28283 16.7172L0.878687 19.1213ZM0.109834 17.2918C0.22028 18.1133 0.441489 18.6841 0.878679 19.1213L3.28284 16.7172C3.29189 16.7262 3.314 16.7487 3.34069 16.7797C3.36767 16.8111 3.39432 16.8454 3.41947 16.882C3.47042 16.9562 3.49962 17.0174 3.51395 17.0521C3.52717 17.084 3.52581 17.0888 3.51706 17.0528C3.50835 17.0169 3.49433 16.949 3.47952 16.8388L0.109834 17.2918ZM3.57628e-07 14C2.4252e-07 15.412 -7.02503e-05 16.4744 0.109835 17.2918L3.47952 16.8388C3.40729 16.3016 3.4 15.5126 3.4 14H3.57628e-07ZM3.57628e-07 13V14H3.4V13H3.57628e-07ZM0.146447 8.61091C-5.18035e-05 9.70054 4.73773e-07 11.116 3.57628e-07 13H3.4C3.4 11.0166 3.40727 9.87362 3.51613 9.06396L0.146447 8.61091ZM1.17157 6.17157C0.586986 6.75616 0.293234 7.51912 0.146446 8.61091L3.51613 9.06395C3.56507 8.69996 3.61914 8.54312 3.63797 8.49745C3.64539 8.47947 3.64332 8.48862 3.62699 8.513C3.60962 8.53896 3.59002 8.56145 3.57574 8.57574L1.17157 6.17157ZM3.61091 5.14645C2.51912 5.29323 1.75616 5.58698 1.17157 6.17158L3.57574 8.57573C3.56146 8.59002 3.53896 8.60962 3.513 8.62699C3.48862 8.64332 3.47947 8.64539 3.49745 8.63797C3.54312 8.61914 3.69996 8.56507 4.06395 8.51613L3.61091 5.14645ZM8 5C6.11603 5 4.70054 4.99995 3.61091 5.14645L4.06395 8.51613C4.87362 8.40727 6.01662 8.4 8 8.4V5ZM20 5L8 5V8.4L20 8.4V5ZM24.3891 5.14645C23.2995 4.99995 21.884 5 20 5V8.4C21.9834 8.4 23.1264 8.40727 23.936 8.51613L24.3891 5.14645ZM26.8284 6.17158C26.2438 5.58698 25.4809 5.29323 24.3891 5.14645L23.936 8.51613C24.3 8.56507 24.4569 8.61914 24.5026 8.63798C24.5205 8.64539 24.5114 8.64332 24.487 8.62699C24.461 8.60962 24.4385 8.59002 24.4243 8.57573L26.8284 6.17158ZM27.8536 8.61091C27.7068 7.51912 27.413 6.75616 26.8284 6.17157L24.4243 8.57574C24.41 8.56145 24.3904 8.53896 24.373 8.513C24.3567 8.48862 24.3546 8.47947 24.362 8.49745C24.3809 8.54312 24.4349 8.69996 24.4839 9.06395L27.8536 8.61091ZM28 13C28 11.116 28 9.70055 27.8536 8.61092L24.4839 9.06395C24.5927 9.87362 24.6 11.0166 24.6 13H28ZM-0.323403 20.3234C0.578408 21.2252 1.70948 21.5051 2.83359 21.6157L3.16641 18.232C2.34035 18.1508 2.15872 17.9972 2.08076 17.9192L-0.323403 20.3234ZM-1.7 14C-1.7 15.3662 -1.70361 16.5618 -1.57501 17.5183C-1.43983 18.5238 -1.13125 19.5156 -0.323404 20.3234L2.08076 17.9192C2.00993 17.8484 1.87917 17.6937 1.79468 17.0653C1.70361 16.388 1.7 15.4623 1.7 14H-1.7ZM-1.7 13V14H1.7V13H-1.7ZM-0.0305076 4.96949C-0.984802 5.92378 -1.3666 7.10663 -1.53839 8.38439C-1.70361 9.61325 -1.7 11.1624 -1.7 13H1.7C1.7 11.0663 1.70361 9.78708 1.83129 8.83743C1.95239 7.93669 2.15638 7.59093 2.37365 7.37365L-0.0305076 4.96949ZM8 3.3C6.16244 3.3 4.61325 3.29639 3.38439 3.46161C2.10663 3.6334 0.923785 4.0152 -0.0305084 4.96949L2.37366 7.37365C2.59093 7.15638 2.93669 6.95239 3.83743 6.83129C4.78708 6.70361 6.06632 6.7 8 6.7V3.3ZM20 3.3H8V6.7H20V3.3ZM28.0305 4.96949C27.0762 4.0152 25.8934 3.6334 24.6156 3.46161C23.3867 3.29639 21.8376 3.3 20 3.3V6.7C21.9337 6.7 23.2129 6.70361 24.1626 6.83129C25.0633 6.95239 25.4091 7.15638 25.6263 7.37365L28.0305 4.96949ZM29.7 13C29.7 11.1624 29.7036 9.61326 29.5384 8.38439C29.3666 7.10663 28.9848 5.92379 28.0305 4.96949L25.6263 7.37366C25.8436 7.59093 26.0476 7.93669 26.1687 8.83743C26.2964 9.78708 26.3 11.0663 26.3 13H29.7ZM29.7 14V13H26.3V14H29.7ZM28.3234 20.3234C29.1312 19.5156 29.4398 18.5238 29.575 17.5183C29.7036 16.5618 29.7 15.3662 29.7 14H26.3C26.3 15.4623 26.2964 16.388 26.2053 17.0653C26.1208 17.6937 25.9901 17.8484 25.9192 17.9192L28.3234 20.3234ZM25.1664 21.6157C26.2905 21.5051 27.4216 21.2252 28.3234 20.3234L25.9192 17.9192C25.8413 17.9972 25.6596 18.1508 24.8336 18.232L25.1664 21.6157ZM23.3 19.9239V20H26.7V19.9239H23.3ZM25 18.3H22.0868V21.7H25V18.3ZM22 21.7C22.0146 21.7 22.0291 21.7 22.0435 21.7C22.058 21.7 22.0724 21.7 22.0868 21.7V18.3C22.0724 18.3 22.0579 18.3 22.0435 18.3C22.029 18.3 22.0145 18.3 22 18.3V21.7ZM6 21.7L22 21.7V18.3L6 18.3V21.7ZM6 18.3H3V21.7H6V18.3ZM4.7 20V19.9239H1.3V20H4.7ZM23 11.3C22.8345 11.3 22.7 11.1655 22.7 11H19.3C19.3 13.0432 20.9568 14.7 23 14.7V11.3ZM23.3 11C23.3 11.1655 23.1655 11.3 23 11.3V14.7C25.0432 14.7 26.7 13.0432 26.7 11H23.3ZM23 10.7C23.1655 10.7 23.3 10.8345 23.3 11H26.7C26.7 8.95677 25.0432 7.3 23 7.3V10.7ZM22.7 11C22.7 10.8345 22.8345 10.7 23 10.7V7.3C20.9568 7.3 19.3 8.95677 19.3 11H22.7ZM23 8.59565C21.6785 8.59565 20.6043 9.66981 20.6043 10.9913H24.0043C24.0043 11.5476 23.5563 11.9957 23 11.9957V8.59565ZM25.3957 10.9913C25.3957 9.66981 24.3215 8.59565 23 8.59565V11.9957C22.4437 11.9957 21.9957 11.5476 21.9957 10.9913H25.3957ZM23 13.387C24.3215 13.387 25.3957 12.3128 25.3957 10.9913H21.9957C21.9957 10.435 22.4437 9.98696 23 9.98696V13.387ZM20.6043 10.9913C20.6043 12.3128 21.6785 13.387 23 13.387V9.98696C23.5563 9.98696 24.0043 10.435 24.0043 10.9913H20.6043ZM10.5411 24.0419C11.4931 23.0803 11.4853 21.5291 10.5237 20.5771L8.13164 22.9933C7.75877 22.6242 7.75575 22.0227 8.12488 21.6498L10.5411 24.0419ZM9.75088 24.8401L10.5411 24.0419L8.12488 21.6498L7.33467 22.448L9.75088 24.8401ZM9.32046 22.4999C10.2393 22.9175 10.461 24.1228 9.75088 24.8401L7.33467 22.448C6.37971 23.4126 6.67786 25.0335 7.91351 25.5951L9.32046 22.4999ZM9.70718 22.6757L9.32045 22.4999L7.91352 25.5951L8.30026 25.7709L9.70718 22.6757ZM10.7313 28.2437C12.4208 26.5371 11.8934 23.6694 9.70718 22.6757L8.30025 25.7709C8.30975 25.7752 8.3141 25.7785 8.31551 25.7797C8.31711 25.781 8.31821 25.7821 8.3193 25.7836C8.32187 25.7869 8.32644 25.7949 8.32874 25.8074C8.33103 25.8199 8.3296 25.829 8.3284 25.833C8.32789 25.8348 8.32728 25.8362 8.32624 25.838C8.32532 25.8396 8.32243 25.8442 8.31509 25.8516L10.7313 28.2437ZM9.94109 29.0419L10.7313 28.2437L8.3151 25.8516L7.52488 26.6498L9.94109 29.0419ZM6.47632 29.0593C7.4379 30.0112 8.98913 30.0034 9.94109 29.0419L7.52488 26.6498C7.89401 26.277 8.49551 26.2739 8.86837 26.6431L6.47632 29.0593ZM6.45891 25.5945C5.50694 26.5561 5.51473 28.1073 6.47632 29.0593L8.86836 26.6431C9.24123 27.0122 9.24425 27.6137 8.87512 27.9865L6.45891 25.5945ZM7.24912 24.7963L6.4589 25.5945L8.87512 27.9865L9.66533 27.1884L7.24912 24.7963ZM7.67955 27.1365C6.76071 26.7188 6.53903 25.5136 7.24912 24.7963L9.66533 27.1884C10.6203 26.2238 10.3222 24.6029 9.08648 24.0412L7.67955 27.1365ZM7.29282 26.9607L7.67955 27.1365L9.08648 24.0412L8.69975 23.8654L7.29282 26.9607ZM6.26869 21.3927C4.57917 23.0993 5.10661 25.967 7.29282 26.9607L8.69975 23.8654C8.69026 23.8611 8.6859 23.8578 8.68449 23.8567C8.68289 23.8554 8.68179 23.8542 8.6807 23.8528C8.67813 23.8494 8.67356 23.8414 8.67126 23.829C8.66897 23.8165 8.6704 23.8074 8.6716 23.8033C8.67211 23.8016 8.67272 23.8001 8.67376 23.7984C8.67468 23.7968 8.67757 23.7922 8.68491 23.7847L6.26869 21.3927ZM7.0589 20.5945L6.26869 21.3927L8.68491 23.7847L9.47512 22.9865L7.0589 20.5945ZM10.5237 20.5771C9.56211 19.6251 8.01087 19.6329 7.05891 20.5945L9.47512 22.9866C9.10599 23.3594 8.50449 23.3624 8.13163 22.9933L10.5237 20.5771ZM13.1316 22.9933C12.7588 22.6242 12.7558 22.0227 13.1249 21.6498L15.5411 24.0419C16.4931 23.0803 16.4853 21.5291 15.5237 20.5771L13.1316 22.9933ZM14.4751 22.9866C14.106 23.3594 13.5045 23.3624 13.1316 22.9933L15.5237 20.5771C14.5621 19.6251 13.0109 19.6329 12.0589 20.5945L14.4751 22.9866ZM13.6849 23.7847L14.4751 22.9865L12.0589 20.5945L11.2687 21.3927L13.6849 23.7847ZM13.6997 23.8654C13.6903 23.8611 13.6859 23.8578 13.6845 23.8567C13.6829 23.8554 13.6818 23.8542 13.6807 23.8528C13.6781 23.8494 13.6736 23.8414 13.6713 23.829C13.669 23.8165 13.6704 23.8074 13.6716 23.8033C13.6721 23.8016 13.6727 23.8001 13.6738 23.7984C13.6747 23.7968 13.6776 23.7922 13.6849 23.7847L11.2687 21.3927C9.57917 23.0993 10.1066 25.967 12.2928 26.9607L13.6997 23.8654ZM14.0865 24.0412L13.6997 23.8654L12.2928 26.9607L12.6796 27.1365L14.0865 24.0412ZM14.6653 27.1884C15.6203 26.2238 15.3222 24.6029 14.0865 24.0412L12.6796 27.1365C11.7607 26.7188 11.539 25.5136 12.2491 24.7963L14.6653 27.1884ZM13.8751 27.9865L14.6653 27.1884L12.2491 24.7963L11.4589 25.5945L13.8751 27.9865ZM13.8684 26.6431C14.2412 27.0122 14.2442 27.6137 13.8751 27.9865L11.4589 25.5945C10.5069 26.5561 10.5147 28.1073 11.4763 29.0593L13.8684 26.6431ZM12.5249 26.6498C12.894 26.277 13.4955 26.2739 13.8684 26.6431L11.4763 29.0593C12.4379 30.0112 13.9891 30.0034 14.9411 29.0419L12.5249 26.6498ZM13.3151 25.8516L12.5249 26.6498L14.9411 29.0419L15.7313 28.2437L13.3151 25.8516ZM13.3003 25.7709C13.3097 25.7752 13.3141 25.7785 13.3155 25.7797C13.3171 25.781 13.3182 25.7821 13.3193 25.7836C13.3219 25.7869 13.3264 25.7949 13.3287 25.8074C13.331 25.8199 13.3296 25.829 13.3284 25.833C13.3279 25.8348 13.3273 25.8362 13.3262 25.838C13.3253 25.8396 13.3224 25.8442 13.3151 25.8516L15.7313 28.2437C17.4208 26.5371 16.8934 23.6694 14.7072 22.6757L13.3003 25.7709ZM12.9135 25.5951L13.3003 25.7709L14.7072 22.6757L14.3205 22.4999L12.9135 25.5951ZM12.3347 22.448C11.3797 23.4126 11.6779 25.0335 12.9135 25.5951L14.3205 22.4999C15.2393 22.9175 15.461 24.1228 14.7509 24.8401L12.3347 22.448ZM13.1249 21.6498L12.3347 22.448L14.7509 24.8401L15.5411 24.0419L13.1249 21.6498ZM20.5411 24.0419C21.4931 23.0803 21.4853 21.529 20.5237 20.5771L18.1316 22.9933C17.7588 22.6242 17.7558 22.0227 18.1249 21.6498L20.5411 24.0419ZM19.7509 24.8401L20.5411 24.0419L18.1249 21.6498L17.3347 22.448L19.7509 24.8401ZM19.3205 22.4999C20.2393 22.9175 20.461 24.1228 19.7509 24.8401L17.3347 22.448C16.3797 23.4126 16.6778 25.0335 17.9135 25.5951L19.3205 22.4999ZM19.7072 22.6757L19.3205 22.4999L17.9135 25.5951L18.3003 25.7709L19.7072 22.6757ZM20.7313 28.2437C22.4208 26.5371 21.8934 23.6694 19.7072 22.6757L18.3003 25.7709C18.3097 25.7752 18.3141 25.7785 18.3155 25.7797C18.3171 25.781 18.3182 25.7821 18.3193 25.7836C18.3219 25.7869 18.3264 25.7949 18.3287 25.8074C18.331 25.8199 18.3296 25.829 18.3284 25.833C18.3279 25.8348 18.3273 25.8362 18.3262 25.838C18.3253 25.8396 18.3224 25.8442 18.3151 25.8516L20.7313 28.2437ZM19.9411 29.0419L20.7313 28.2437L18.3151 25.8516L17.5249 26.6498L19.9411 29.0419ZM16.4763 29.0593C17.4379 30.0112 18.9891 30.0034 19.9411 29.0419L17.5249 26.6498C17.894 26.277 18.4955 26.2739 18.8684 26.6431L16.4763 29.0593ZM16.4589 25.5945C15.5069 26.5561 15.5147 28.1073 16.4763 29.0593L18.8684 26.6431C19.2412 27.0122 19.2443 27.6137 18.8751 27.9866L16.4589 25.5945ZM17.2491 24.7963L16.4589 25.5945L18.8751 27.9866L19.6653 27.1884L17.2491 24.7963ZM17.6796 27.1365C16.7607 26.7188 16.539 25.5136 17.2491 24.7963L19.6653 27.1883C20.6203 26.2238 20.3222 24.6029 19.0865 24.0412L17.6796 27.1365ZM17.2928 26.9607L17.6796 27.1365L19.0865 24.0412L18.6997 23.8654L17.2928 26.9607ZM16.2687 21.3927C14.5792 23.0993 15.1066 25.967 17.2928 26.9607L18.6997 23.8654C18.6903 23.8611 18.6859 23.8578 18.6845 23.8567C18.6829 23.8554 18.6818 23.8542 18.6807 23.8528C18.6781 23.8494 18.6736 23.8414 18.6713 23.829C18.669 23.8165 18.6704 23.8074 18.6716 23.8033C18.6721 23.8016 18.6727 23.8001 18.6738 23.7984C18.6747 23.7968 18.6776 23.7922 18.6849 23.7847L16.2687 21.3927ZM17.0589 20.5945L16.2687 21.3927L18.6849 23.7847L19.4751 22.9865L17.0589 20.5945ZM20.5237 20.5771C19.5621 19.6251 18.0109 19.6329 17.0589 20.5945L19.4751 22.9866C19.106 23.3594 18.5045 23.3624 18.1316 22.9933L20.5237 20.5771Z" fill="#4894DD" mask="url(#path-3-inside-1_15918_46540)"/>
</g>
<defs>
<clipPath id="clip0_15918_46540">
<rect width="28" height="28" fill="white"/>
</clipPath>
</defs>
</svg>
