<svg width="28" height="28" viewBox="0 0 28 28" fill="none" xmlns="http://www.w3.org/2000/svg">
<rect x="3" y="6" width="22" height="8" rx="3" fill="white"/>
<rect x="3.5" y="5.48517" width="22" height="8" rx="3" fill="white"/>
<path d="M3.5 15.4852C3.5 14.3806 4.39543 13.4852 5.5 13.4852H23.5C24.6046 13.4852 25.5 14.3806 25.5 15.4852V20C25.5 21.1046 24.6046 22 23.5 22H5.5C4.39543 22 3.5 21.1046 3.5 20V15.4852Z" fill="#F0E8F8"/>
<circle cx="11" cy="11.4852" r="2" fill="#F9E3E7"/>
<circle cx="18.5" cy="11.4852" r="2" fill="#F9E3E7"/>
<circle cx="7.5" cy="10.9852" r="2.5" fill="#F9E3E7"/>
<circle cx="22" cy="10.9852" r="2.5" fill="#F9E3E7"/>
<path fill-rule="evenodd" clip-rule="evenodd" d="M6.87504 13.2678C6.59321 13.2678 6.39265 13.3073 6.1802 13.3491C5.8943 13.4054 5.58687 13.466 5.03088 13.4402C4.72036 13.1562 4.5 12.6489 4.5 12.2026V9.82864C4.5 9.43299 4.6803 8.96632 4.94074 8.69241C5.87229 7.70836 6.83389 7.49531 7.47496 7.48517H7.50501C8.29633 7.48517 9.07763 7.80981 9.62855 8.37792C9.66187 8.41167 9.6952 8.44767 9.72815 8.48517H11.203C12.4731 8.48517 13.5 9.5985 13.5 10.9755C13.5 11.6493 13.2568 12.2743 12.8154 12.743C12.401 13.2215 11.8245 13.4852 11.203 13.4852H9.68252C9.42546 13.6622 9.14574 13.5993 8.81982 13.526C8.57575 13.4711 8.30577 13.4104 8 13.4402C7.95047 13.4458 7.64609 13.3932 7.36519 13.3447L7.36519 13.3447L7.36515 13.3447C7.13475 13.3048 6.92017 13.2678 6.87504 13.2678ZM8.52153 12.5619C8.28089 12.7906 7.9788 12.9313 7.64523 12.9634C7.11434 13.0243 6.5534 12.791 6.04254 12.3345C6.02251 12.304 5.99248 12.233 5.99248 12.2127V9.84894C5.99248 9.81851 6.01249 9.74752 6.01249 9.74752C6.46325 9.27071 6.96411 9.01705 7.47496 9.0069H7.49499C7.88067 9.0069 8.24777 9.1573 8.52486 9.42191C8.54717 9.50854 8.58434 9.59152 8.63568 9.66683C8.80683 9.92073 8.9059 10.2333 8.9059 10.5458V11.4246C8.9059 11.7469 8.80683 12.0594 8.63568 12.3036C8.5817 12.3827 8.54339 12.4704 8.52153 12.5619ZM10.4457 12.0203H11.203C11.4552 12.0203 11.6894 11.9129 11.8606 11.7274C12.0497 11.5321 12.1488 11.2781 12.1488 10.9949C12.1488 10.4285 11.7254 9.96956 11.203 9.96956H10.4497C10.4829 10.1529 10.5 10.3403 10.5 10.5286V11.4417C10.5 11.6365 10.4816 11.8304 10.4457 12.0203ZM21 13.4852H21.5C22.1611 13.4852 23 13.4852 23.9691 13.4387C24.2796 13.1644 24.5 12.6564 24.5 12.2094V9.83204C24.5 9.43582 24.3197 8.96848 24.0593 8.69417C23.1277 7.70869 22.1661 7.49533 21.5251 7.48517H21.495C20.7037 7.48517 19.9324 7.81029 19.3714 8.37923C19.3383 8.41281 19.3052 8.44861 19.2732 8.48517H17.797C16.5269 8.48517 15.5 9.60281 15.5 10.9852C15.5 11.6616 15.7432 12.2891 16.1666 12.7401C16.599 13.2205 17.1755 13.4852 17.797 13.4852H19.3057C19.5734 13.6824 19.8608 13.6247 20.1977 13.5569C20.4367 13.5089 20.7005 13.4559 21 13.4852ZM18.5539 9.95576C18.5182 10.1452 18.5 10.3387 18.5 10.5331V11.4475C18.5 11.6383 18.5176 11.8283 18.552 12.0146H17.797C17.5358 12.0146 17.3016 11.9068 17.1214 11.7009C16.9503 11.5146 16.8512 11.2597 16.8512 10.9852C16.8512 10.4165 17.2746 9.95576 17.797 9.95576H18.5539ZM20.464 12.5252C20.7085 12.7686 21.0199 12.9196 21.3648 12.9612C21.8957 13.0222 22.4566 12.7885 22.9975 12.311C22.9975 12.311 23.0176 12.2399 23.0276 12.2094V9.84221C23.0276 9.82189 22.9974 9.75079 22.9874 9.73048C22.5567 9.27329 22.0559 9.01928 21.545 9.01928L21.5449 9.01915C21.525 8.99896 21.525 8.99894 21.515 8.99894C21.125 8.99894 20.7445 9.15295 20.4751 9.42347C20.4528 9.5115 20.4157 9.59589 20.3643 9.67147C20.1932 9.91657 20.0941 10.2303 20.0941 10.5538V11.4362C20.0941 11.7597 20.1932 12.0636 20.3643 12.3185C20.4079 12.3827 20.4413 12.4524 20.464 12.5252Z" fill="#E54F6D"/>
<path fill-rule="evenodd" clip-rule="evenodd" d="M4.50001 11.5703L4.50001 9.94668C4.50001 8.00964 6.07334 6.44096 8.01038 6.4467L21.0104 6.48523C22.9393 6.49094 24.5 8.05626 24.5 9.98521V11.6271C24.5 11.8303 24.3785 12.0061 24.2031 12.0841C24.1081 12.0745 24.0113 12.0717 23.9131 12.0759L14.683 12.4772L14.5044 12.4839L4.97829 12.0698C4.71085 12.0582 4.50001 11.838 4.50001 11.5703ZM3.44017 12.8221C3.16443 12.4788 3.00001 12.0431 3.00001 11.5703L3.00001 9.94668C3.00001 7.17947 5.24762 4.93851 8.01482 4.94671L21.0148 4.98523C23.7705 4.9934 26 7.22957 26 9.98521V11.6271C26 12.0871 25.8444 12.5118 25.5822 12.8505C25.8438 13.1881 26 13.6122 26 14.074V18.5C26 21.2614 23.7614 23.5 21 23.5H8.00001C5.23858 23.5 3 21.2614 3 18.5V14.074C3 13.5991 3.16513 13.1642 3.44017 12.8221ZM14.7437 13.976L14.5651 13.9838L14.5 13.9866L14.4348 13.9838L5.02172 13.5745C4.73732 13.5622 4.5 13.7894 4.5 14.074V18.5C4.5 20.433 6.06701 22 8.00001 22H21C22.933 22 24.5 20.433 24.5 18.5V14.074C24.5 13.8694 24.3773 13.6944 24.2027 13.6168C24.1605 13.6211 24.118 13.624 24.075 13.6257L14.7437 13.976Z" fill="#AF89D0"/>
</svg>
