<svg width="28" height="28" viewBox="0 0 28 28" fill="none" xmlns="http://www.w3.org/2000/svg">
<rect x="2" y="5" width="22" height="14" rx="2" fill="#DDF3FF"/>
<path fill-rule="evenodd" clip-rule="evenodd" d="M5 5.5H21C22.3807 5.5 23.5 6.61929 23.5 8V16C23.5 17.3807 22.3807 18.5 21 18.5H5C3.61929 18.5 2.5 17.3807 2.5 16V8C2.5 6.61929 3.61929 5.5 5 5.5ZM1 8C1 5.79086 2.79086 4 5 4H21C23.2091 4 25 5.79086 25 8V16C25 18.2091 23.2091 20 21 20H14.4746L16.5746 23.5H18.25C18.6642 23.5 19 23.8358 19 24.25C19 24.6642 18.6642 25 18.25 25H7.75C7.33579 25 7 24.6642 7 24.25C7 23.8358 7.33579 23.5 7.75 23.5H9.43699L11.4577 20H5C2.79086 20 1 18.2091 1 16V8ZM11.169 23.5H14.8254L12.962 20.3945L11.169 23.5Z" fill="#4894DD"/>
<rect x="20.4286" y="16.4286" width="6.42857" height="8.57143" rx="3.21429" fill="white"/>
<rect x="23" y="18.1429" width="1.28571" height="1.71429" fill="#F8F8F8"/>
<path d="M23.5357 25.2143C21.5857 25.2143 20 23.6286 20 21.6786V19.5357C20 17.5857 21.5857 16 23.5357 16C25.4857 16 27.0714 17.5857 27.0714 19.5357V21.6786C27.0714 23.6286 25.4857 25.2143 23.5357 25.2143ZM23.5357 16.6429C21.9414 16.6429 20.6429 17.9414 20.6429 19.5357V21.6786C20.6429 23.2729 21.9414 24.5714 23.5357 24.5714C25.13 24.5714 26.4286 23.2729 26.4286 21.6786V19.5357C26.4286 17.9414 25.13 16.6429 23.5357 16.6429Z" fill="#4894DD" stroke="#4894DD" stroke-width="0.7"/>
<path d="M23.5358 20.5C23.0043 20.5 22.5715 20.0672 22.5715 19.5357V18.6786C22.5715 18.1472 23.0043 17.7143 23.5358 17.7143C24.0672 17.7143 24.5 18.1472 24.5 18.6786V19.5357C24.5 20.0672 24.0672 20.5 23.5358 20.5ZM23.5358 18.3572C23.36 18.3572 23.2143 18.5029 23.2143 18.6786V19.5357C23.2143 19.7114 23.36 19.8572 23.5358 19.8572C23.7115 19.8572 23.8572 19.7114 23.8572 19.5357V18.6786C23.8572 18.5029 23.7115 18.3572 23.5358 18.3572Z" fill="#4894DD" stroke="#4894DD" stroke-width="0.3"/>
<path d="M23.5357 18.3571C23.36 18.3571 23.2143 18.2114 23.2143 18.0357V16.3214C23.2143 16.1457 23.36 16 23.5357 16C23.7114 16 23.8572 16.1457 23.8572 16.3214V18.0357C23.8572 18.2114 23.7114 18.3571 23.5357 18.3571Z" fill="#4894DD" stroke="#4894DD" stroke-width="0.2"/>
</svg>
