<svg width="28" height="28" viewBox="0 0 28 28" fill="none" xmlns="http://www.w3.org/2000/svg">
<rect x="10" y="3" width="8" height="15" rx="4" fill="#FFF6DC"/>
<path d="M13.9997 18.9584C10.943 18.9584 8.45801 16.4734 8.45801 13.4167V7.00004C8.45801 3.94337 10.943 1.45837 13.9997 1.45837C17.0563 1.45837 19.5413 3.94337 19.5413 7.00004V13.4167C19.5413 16.4734 17.0563 18.9584 13.9997 18.9584ZM13.9997 3.20837C11.9113 3.20837 10.208 4.91171 10.208 7.00004V13.4167C10.208 15.505 11.9113 17.2084 13.9997 17.2084C16.088 17.2084 17.7913 15.505 17.7913 13.4167V7.00004C17.7913 4.91171 16.088 3.20837 13.9997 3.20837Z" fill="#F7C530"/>
<path d="M13.9992 23.0415C8.59755 23.0415 4.19922 18.6432 4.19922 13.2415V11.2582C4.19922 10.7798 4.59589 10.3832 5.07422 10.3832C5.55255 10.3832 5.94922 10.7798 5.94922 11.2582V13.2415C5.94922 17.6748 9.56589 21.2915 13.9992 21.2915C18.4325 21.2915 22.0492 17.6748 22.0492 13.2415V11.2582C22.0492 10.7798 22.4459 10.3832 22.9242 10.3832C23.4025 10.3832 23.7992 10.7798 23.7992 11.2582V13.2415C23.7992 18.6432 19.4009 23.0415 13.9992 23.0415Z" fill="#F7C530"/>
<path d="M15.6219 8.37646C15.5285 8.37646 15.4235 8.3648 15.3185 8.3298C14.4669 8.0148 13.5335 8.0148 12.6819 8.3298C12.2269 8.49313 11.7252 8.2598 11.5618 7.8048C11.3985 7.34979 11.6318 6.84813 12.0869 6.68479C13.3235 6.24146 14.6885 6.24146 15.9252 6.68479C16.3802 6.84813 16.6135 7.34979 16.4502 7.8048C16.3102 8.1548 15.9719 8.37646 15.6219 8.37646Z" fill="#F7C530"/>
<path d="M14.9331 10.8498C14.8514 10.8498 14.7814 10.8381 14.6998 10.8148C14.2331 10.6865 13.7548 10.6865 13.2881 10.8148C12.8214 10.9431 12.3431 10.6631 12.2148 10.1965C12.0864 9.74146 12.3664 9.26313 12.8331 9.13479C13.5914 8.92479 14.4081 8.92479 15.1664 9.13479C15.6331 9.26313 15.9131 9.74146 15.7848 10.2081C15.6798 10.5931 15.3181 10.8498 14.9331 10.8498Z" fill="#F7C530"/>
<path d="M14 26.5416C13.5217 26.5416 13.125 26.145 13.125 25.6666V22.1666C13.125 21.6883 13.5217 21.2916 14 21.2916C14.4783 21.2916 14.875 21.6883 14.875 22.1666V25.6666C14.875 26.145 14.4783 26.5416 14 26.5416Z" fill="#F7C530"/>
</svg>
