<svg width="28" height="28" viewBox="0 0 28 28" fill="none" xmlns="http://www.w3.org/2000/svg">
<rect x="3" y="6" width="21" height="16" rx="4" fill="#F9E3E7"/>
<circle cx="14" cy="15" r="3" fill="#F8F8F8"/>
<path fill-rule="evenodd" clip-rule="evenodd" d="M15.625 4.5C15.625 4.51399 15.6254 4.52791 15.6261 4.54175H8.22917C4.275 4.54175 2 6.81675 2 10.7709V17.3484C2 21.3025 4.275 23.5775 8.22917 23.5775H19.0625C23.0167 23.5775 25.2917 21.3025 25.2917 17.3484V10.7709C25.2917 7.3186 23.5575 5.14627 20.4857 4.65047C20.4951 4.60162 20.5 4.55132 20.5 4.5C20.5 4.05583 20.1317 3.6875 19.6875 3.6875H16.4375C15.9933 3.6875 15.625 4.05583 15.625 4.5ZM3.625 10.7709C3.625 7.67258 5.13083 6.16675 8.22917 6.16675H19.0625C22.1608 6.16675 23.6667 7.67258 23.6667 10.7709V17.3484C23.6667 20.4467 22.1608 21.9525 19.0625 21.9525H8.22917C5.13083 21.9525 3.625 20.4467 3.625 17.3484V10.7709ZM9.5835 14.5625C9.5835 16.805 11.4035 18.625 13.646 18.625C15.8885 18.625 17.7085 16.805 17.7085 14.5625C17.7085 12.32 15.8885 10.5 13.646 10.5C11.4035 10.5 9.5835 12.32 9.5835 14.5625ZM11.2085 14.5625C11.2085 13.2192 12.3027 12.125 13.646 12.125C14.9893 12.125 16.0835 13.2192 16.0835 14.5625C16.0835 15.9058 14.9893 17 13.646 17C12.3027 17 11.2085 15.9058 11.2085 14.5625ZM16.7295 7.52075L10.5628 7.52075C10.1187 7.52075 9.75033 7.88908 9.75033 8.33325C9.75033 8.77742 10.1187 9.14575 10.5628 9.14575H16.7295C17.1737 9.14575 17.542 8.77742 17.542 8.33325C17.542 7.88908 17.1737 7.52075 16.7295 7.52075Z" fill="#E54F6D"/>
</svg>
