<svg width="28" height="28" viewBox="0 0 28 28" fill="none" xmlns="http://www.w3.org/2000/svg">
<g id="&#217;&#130;&#216;&#183;&#216;&#185;&#216;&#167;&#216;&#170; &#218;&#169;&#216;&#167;&#217;&#133;&#217;&#190;&#219;&#140;&#217;&#136;&#216;&#170;&#216;&#177;">
<rect id="Rectangle 9227" x="2" y="9" width="24" height="10" fill="#F9E3E7"/>
<rect id="Rectangle 9228" x="21" y="12" width="3" height="3" fill="white"/>
<rect id="Rectangle 9229" x="15" y="12" width="3" height="3" fill="white"/>
<rect id="Rectangle 9232" x="13" y="19" width="12" height="3" fill="white"/>
<rect id="Rectangle 9233" x="4" y="19" width="6" height="3" fill="white"/>
<rect id="Rectangle 9230" x="10" y="12" width="3" height="3" fill="white"/>
<rect id="Rectangle 9231" x="5" y="12" width="3" height="3" fill="white"/>
<path id="Rectangle 9220" d="M2.06555 9.38136C1.862 9.12691 2.04316 8.75 2.369 8.75H25.7614C26.0347 8.75 26.1866 9.06611 26.0159 9.27951L26.6016 9.74803L26.0159 9.27951C25.4347 10.006 25.4927 11.0534 26.1506 11.7113L26.6809 11.1809L26.1506 11.7113L26.4951 12.0558C26.6583 12.219 26.75 12.4403 26.75 12.6711V16C26.75 16.964 26.7484 17.6116 26.6835 18.0946C26.6214 18.5561 26.5142 18.7536 26.3839 18.8839C26.2536 19.0142 26.0561 19.1214 25.5946 19.1835C25.1116 19.2484 24.464 19.25 23.5 19.25H5C4.03599 19.25 3.38843 19.2484 2.90539 19.1835C2.44393 19.1214 2.24643 19.0142 2.11612 18.8839L1.58579 19.4142L2.11612 18.8839C1.9858 18.7536 1.87858 18.5561 1.81654 18.0946C1.75159 17.6116 1.75 16.964 1.75 16V12.5279C1.75 12.3317 1.80806 12.14 1.91686 11.9768L2.16221 11.6088C2.61842 10.9244 2.57933 10.0236 2.06555 9.38136Z" stroke="#E54F6D" stroke-width="1.5"/>
<path id="Rectangle 9221" d="M4.6 12C4.6 11.7791 4.77909 11.6 5 11.6H7C7.22091 11.6 7.4 11.7791 7.4 12V15C7.4 15.2209 7.22091 15.4 7 15.4H5C4.77909 15.4 4.6 15.2209 4.6 15V12Z" stroke="#E54F6D" stroke-width="1.2"/>
<path id="Rectangle 9222" d="M10.1 12C10.1 11.7791 10.2791 11.6 10.5 11.6H12.5C12.7209 11.6 12.9 11.7791 12.9 12V15C12.9 15.2209 12.7209 15.4 12.5 15.4H10.5C10.2791 15.4 10.1 15.2209 10.1 15V12Z" stroke="#E54F6D" stroke-width="1.2"/>
<g id="Rectangle 9223">
<mask id="path-11-inside-1_11748_72934" fill="white">
<rect x="15" y="11" width="4" height="5" rx="1"/>
</mask>
<rect x="15" y="11" width="4" height="5" rx="1" stroke="#E54F6D" stroke-width="2.4" mask="url(#path-11-inside-1_11748_72934)"/>
</g>
<path id="Rectangle 9224" d="M21.1 12C21.1 11.7791 21.2791 11.6 21.5 11.6H23.5C23.7209 11.6 23.9 11.7791 23.9 12V15C23.9 15.2209 23.7209 15.4 23.5 15.4H21.5C21.2791 15.4 21.1 15.2209 21.1 15V12Z" stroke="#E54F6D" stroke-width="1.2"/>
<path id="Rectangle 9225" d="M3.6 19.7C3.6 19.6448 3.64477 19.6 3.7 19.6H10.3C10.3552 19.6 10.4 19.6448 10.4 19.7V21.3C10.4 21.3552 10.3552 21.4 10.3 21.4H3.7C3.64477 21.4 3.6 21.3552 3.6 21.3V19.7Z" stroke="#E54F6D" stroke-width="1.2"/>
<path id="Rectangle 9226" d="M12.6 19.7C12.6 19.6448 12.6448 19.6 12.7 19.6H24.8C24.8552 19.6 24.9 19.6448 24.9 19.7V21.3C24.9 21.3552 24.8552 21.4 24.8 21.4H12.7C12.6448 21.4 12.6 21.3552 12.6 21.3V19.7Z" stroke="#E54F6D" stroke-width="1.2"/>
</g>
</svg>
