<svg width="28" height="28" viewBox="0 0 28 28" fill="none" xmlns="http://www.w3.org/2000/svg">
<rect x="4" y="5" width="20" height="11" rx="2" fill="#DDF3FF"/>
<path d="M19.31 20.72H8.19C4.21 20.72 3 19.51 3 15.53V9.19C3 5.21 4.21 4 8.19 4H19.3C23.28 4 24.49 5.21 24.49 9.19V15.52C24.5 19.51 23.29 20.72 19.31 20.72ZM8.19 5.5C5.05 5.5 4.5 6.05 4.5 9.19V15.52C4.5 18.66 5.05 19.21 8.19 19.21H19.3C22.44 19.21 22.99 18.66 22.99 15.52V9.19C22.99 6.05 22.44 5.5 19.3 5.5H8.19Z" fill="#4894DD"/>
<path d="M13.75 25.5C13.34 25.5 13 25.16 13 24.75V19.97C13 19.56 13.34 19.22 13.75 19.22C14.16 19.22 14.5 19.56 14.5 19.97V24.75C14.5 25.16 14.16 25.5 13.75 25.5Z" fill="#4894DD"/>
<path d="M23.75 16.5H3.75C3.34 16.5 3 16.16 3 15.75C3 15.34 3.34 15 3.75 15H23.75C24.16 15 24.5 15.34 24.5 15.75C24.5 16.16 24.16 16.5 23.75 16.5Z" fill="#4894DD"/>
<path d="M18.25 25.5H9.25C8.84 25.5 8.5 25.16 8.5 24.75C8.5 24.34 8.84 24 9.25 24H18.25C18.66 24 19 24.34 19 24.75C19 25.16 18.66 25.5 18.25 25.5Z" fill="#4894DD"/>
</svg>
