<svg width="28" height="28" viewBox="0 0 28 28" fill="none" xmlns="http://www.w3.org/2000/svg">
<rect x="3" y="7" width="22" height="17" rx="2" fill="#F0E8F8"/>
<path fill-rule="evenodd" clip-rule="evenodd" d="M10.8346 4.23421C10.8346 4.01332 10.9675 3.63585 11.543 3.24666C12.1089 2.86388 12.974 2.57895 14 2.57895C15.026 2.57895 15.891 2.86389 16.457 3.24667C17.0325 3.63588 17.1654 4.01335 17.1654 4.23421V6H10.8346V4.23421ZM9.33463 6V4.23421C9.33463 2.49437 11.4275 1.07895 14 1.07895C16.5724 1.07895 18.6654 2.49442 18.6654 4.23421V6H23C24.6569 6 26 7.34315 26 9V21C26 23.2091 24.2091 25 22 25H6C3.79086 25 2 23.2091 2 21V9C2 7.34315 3.34315 6 5 6H9.33463ZM18.6654 7.5H17.1654H10.8346H9.33463H5C4.17157 7.5 3.5 8.17157 3.5 9V21C3.5 22.3807 4.61929 23.5 6 23.5H22C23.3807 23.5 24.5 22.3807 24.5 21V9C24.5 8.17157 23.8284 7.5 23 7.5H18.6654Z" fill="#AF89D0"/>
<path d="M10.5 11L9 12L8 18.5L8.5 20H11L12 17.5H16.5L18 20H20L20.5 14.5L18.5 11H16.5H10.5Z" fill="white"/>
<path fill-rule="evenodd" clip-rule="evenodd" d="M9.05811 21H9.09734C10.0286 21 10.8666 20.4799 11.2841 19.6427L12.1745 17.8571H15.8981L16.7652 19.6009C17.1943 20.4639 18.0571 21 19.0167 21C20.5758 21 21.7541 19.5919 21.5 18.0544L20.6396 12.8469C20.3671 11.1972 18.9621 10 17.299 10H10.773C9.11078 10 7.70594 11.1965 7.43263 12.845L6.56941 18.0526C6.31361 19.5952 7.49776 21 9.05811 21ZM8.11106 18.3111L8.97428 13.1034C9.12141 12.2157 9.87788 11.5714 10.773 11.5714H17.299C18.1946 11.5714 18.9511 12.2161 19.0979 13.1044L19.9582 18.3119C20.0549 18.8974 19.6079 19.4286 19.0168 19.4286C18.653 19.4286 18.3259 19.2253 18.1632 18.8982L17.08 16.7201C16.9477 16.4539 16.6771 16.2857 16.3811 16.2857H11.6922C11.3965 16.2857 11.1262 16.4535 10.9936 16.7193L9.88699 18.9383C9.6359 19.442 9.12938 19.4301 9.06494 19.4286C9.06092 19.4285 9.05862 19.4284 9.05821 19.4285C8.46366 19.4286 8.01358 18.8991 8.11106 18.3111ZM11.85 15.2C12.3194 15.2 12.7 14.8194 12.7 14.35C12.7 13.8806 12.3194 13.5 11.85 13.5C11.3805 13.5 11 13.8806 11 14.35C11 14.8194 11.3805 15.2 11.85 15.2ZM16.85 14.35C16.85 14.8194 16.4694 15.2 16 15.2C15.5305 15.2 15.15 14.8194 15.15 14.35C15.15 13.8806 15.5305 13.5 16 13.5C16.4694 13.5 16.85 13.8806 16.85 14.35Z" fill="#E54F6D"/>
</svg>
