<svg width="28" height="28" viewBox="0 0 28 28" fill="none" xmlns="http://www.w3.org/2000/svg">
<g id="&#217;&#190;&#216;&#176;&#219;&#140;&#216;&#177;&#216;&#167;&#219;&#140;&#219;&#140;">
<path id="Rectangle 9434" d="M5.64551 13.375H22.6455V21.375C22.6455 23.0319 21.3024 24.375 19.6455 24.375H8.64551C6.98865 24.375 5.64551 23.0319 5.64551 21.375V13.375Z" fill="#FFF6DC"/>
<path id="Rectangle 9435" d="M5.64551 10.375C5.64551 8.71815 6.98865 7.375 8.64551 7.375H19.6455C21.3024 7.375 22.6455 8.71815 22.6455 10.375V13.375H5.64551V10.375Z" fill="white"/>
<path id="Vector" d="M18.3575 25.0209H10.3733C7.405 25.0209 5 22.6051 5 19.6476V11.7176C5 8.74924 7.41583 6.34424 10.3733 6.34424H18.3575C21.3258 6.34424 23.7308 8.76007 23.7308 11.7176V19.6476C23.7308 22.6051 21.315 25.0209 18.3575 25.0209ZM10.3733 7.96924C8.30417 7.96924 6.625 9.64841 6.625 11.7176V19.6476C6.625 21.7167 8.30417 23.3959 10.3733 23.3959H18.3575C20.4267 23.3959 22.1058 21.7167 22.1058 19.6476V11.7176C22.1058 9.64841 20.4267 7.96924 18.3575 7.96924H10.3733Z" fill="#F7C530"/>
<path id="Vector_2" d="M9.60352 5.375C9.15935 5.375 8.79102 5.00667 8.79102 4.5625V2.8125C8.79102 2.36833 9.15935 2 9.60352 2C10.0477 2 10.416 2.36833 10.416 2.8125V4.5625C10.416 5.00667 10.0477 5.375 9.60352 5.375Z" fill="#F7C530"/>
<path id="Vector_3" d="M13.9375 5.375C13.4933 5.375 13.125 5.00667 13.125 4.5625V2.8125C13.125 2.36833 13.4933 2 13.9375 2C14.3817 2 14.75 2.36833 14.75 2.8125V4.5625C14.75 5.00667 14.3817 5.375 13.9375 5.375Z" fill="#F7C530"/>
<path id="Vector_4" d="M18.2705 5.375C17.8263 5.375 17.458 5.00667 17.458 4.5625V2.8125C17.458 2.36833 17.8263 2 18.2705 2C18.7147 2 19.083 2.36833 19.083 2.8125V4.5625C19.083 5.00667 18.7147 5.375 18.2705 5.375Z" fill="#F7C530"/>
<path id="Vector_5" d="M22.615 14.1875H5.8125C5.36833 14.1875 5 13.8192 5 13.375C5 12.9308 5.36833 12.5625 5.8125 12.5625H22.615C23.0592 12.5625 23.4275 12.9308 23.4275 13.375C23.4275 13.8192 23.0592 14.1875 22.615 14.1875Z" fill="#F7C530"/>
<path id="Vector_6" d="M25.208 18.4167C24.7638 18.4167 24.3955 18.0483 24.3955 17.6042C24.3955 17.16 24.7638 16.7917 25.208 16.7917C25.8472 16.7917 25.988 16.6942 25.9988 16.6942C26.0205 16.6292 26.0205 16.25 26.0205 15.9792V13.8125C26.0205 13.5417 26.0205 13.1733 25.9772 13.0758C25.988 13.0867 25.8038 13 25.208 13C24.7638 13 24.3955 12.6317 24.3955 12.1875C24.3955 11.7433 24.7638 11.375 25.208 11.375C27.4613 11.375 27.6455 12.48 27.6455 13.8125V15.9792C27.6455 17.3117 27.4613 18.4167 25.208 18.4167Z" fill="#F7C530"/>
</g>
</svg>
