<svg width="28" height="28" viewBox="0 0 28 28" fill="none" xmlns="http://www.w3.org/2000/svg">
<path d="M8.85795 3.84661C8.93811 2.80461 9.80699 2 10.8521 2H17.1479C18.193 2 19.0619 2.80461 19.142 3.84661L19.8344 12.8466C19.9237 14.0082 19.0053 15 17.8402 15H10.1598C8.99473 15 8.07629 14.0082 8.16565 12.8466L8.85795 3.84661Z" fill="#DDF3FF"/>
<path d="M8 26.5V25.7208C8 25.2903 8.27543 24.9082 8.68377 24.7721L13.6838 23.1054C13.889 23.037 14.111 23.037 14.3162 23.1054L19.3162 24.7721C19.7246 24.9082 20 25.2903 20 25.7208V26.5" stroke="#4894DD" stroke-width="1.5" stroke-linecap="round"/>
<path d="M14 26L14 22" stroke="#4894DD" stroke-width="1.5" stroke-linecap="round"/>
<path d="M9.74708 18.5644L18.2471 18.5421L18.2509 19.9891C18.2527 20.6795 17.6945 21.2406 17.0041 21.2424L11.0042 21.2581C10.3138 21.26 9.75269 20.7018 9.75088 20.0114L9.74708 18.5644Z" stroke="#4894DD" stroke-width="1.5"/>
<path d="M5 15.5V16.5C5 17.6046 5.89543 18.5 7 18.5H21C22.1046 18.5 23 17.6046 23 16.5V15.5" stroke="#4894DD" stroke-width="1.5"/>
<line x1="24.25" y1="14.75" x2="21.75" y2="14.75" stroke="#4894DD" stroke-width="1.5" stroke-linecap="round"/>
<line x1="6.25" y1="14.75" x2="3.75" y2="14.75" stroke="#4894DD" stroke-width="1.5" stroke-linecap="round"/>
<path d="M10.9424 1.75H17.0576C18.2326 1.75 19.2097 2.65409 19.3008 3.82553L20.0008 12.8255C20.1025 14.133 19.069 15.25 17.7576 15.25H10.2424C8.93099 15.25 7.89748 14.133 7.99917 12.8255L8.69917 3.82553C8.79028 2.65409 9.76742 1.75 10.9424 1.75Z" stroke="#4894DD" stroke-width="1.5"/>
<path d="M12.5 15L12.5 18" stroke="#4894DD" stroke-width="1.5"/>
<path d="M15.5 15L15.5 18" stroke="#4894DD" stroke-width="1.5"/>
</svg>
