<svg width="28" height="28" viewBox="0 0 28 28" fill="none" xmlns="http://www.w3.org/2000/svg">
<path d="M19.5205 3.14575L12.5205 2.64575L9.02051 3.14575L6.52051 3.64575L4.52051 7.64575L4.02051 15.6458L4.52051 21.1458L7.52051 24.1458L16.5205 24.6458L21.0205 24.1458L23.5205 20.1458L22.0205 16.1458L20.5205 14.1458V11.1458L22.5205 9.64575C22.9205 5.24575 20.6872 3.47909 19.5205 3.14575Z" fill="#EBEFFF"/>
<path d="M18.5624 23.6317C18.5687 24.19 18.0651 24.6458 17.4417 24.6458H10.6982C10.0821 24.6458 9.58151 24.2004 9.5774 23.6485L9.5625 21.6538C9.5625 20.5494 10.56 19.6458 11.8041 19.6458H16.2986C17.5315 19.6458 18.529 20.5393 18.5403 21.6437L18.5624 23.6317Z" fill="white"/>
<path d="M17.8125 25.2917H10.2292C6.21 25.2917 4 23.0817 4 19.0625V8.22917C4 4.21 6.21 2 10.2292 2H17.8125C21.7667 2 24.0417 4.275 24.0417 8.22917V9.3125C24.0417 10.3525 23.1858 11.2083 22.1458 11.2083C21.9942 11.2083 21.875 11.3275 21.875 11.4792V13.83C21.875 14.1875 22.0158 14.5342 22.2758 14.7833L23.175 15.6825C23.7383 16.2458 24.0525 16.9933 24.0525 17.7842V19.0625C24.0417 23.0167 21.7667 25.2917 17.8125 25.2917ZM10.2292 3.625C7.13083 3.625 5.625 5.13083 5.625 8.22917V19.0625C5.625 22.1608 7.13083 23.6667 10.2292 23.6667H17.8125C20.8675 23.6667 22.4167 22.1175 22.4167 19.0625V17.795C22.4167 17.4375 22.2758 17.0908 22.0158 16.8417L21.1167 15.9425C20.5533 15.3792 20.2392 14.6317 20.2392 13.8408V11.4792C20.2392 10.4392 21.095 9.58333 22.135 9.58333C22.2867 9.58333 22.4058 9.46417 22.4058 9.3125V8.22917C22.4058 5.17417 20.8567 3.625 17.8017 3.625H10.2292Z" fill="#7A88B9"/>
<path d="M16.1543 9.88672H9.6543C9.21013 9.88672 8.8418 9.51839 8.8418 9.07422C8.8418 8.63005 9.21013 8.26172 9.6543 8.26172H16.1543C16.5984 8.26172 16.9668 8.63005 16.9668 9.07422C16.9668 9.51839 16.6093 9.88672 16.1543 9.88672Z" fill="#7A88B9"/>
<path d="M18.4103 25.0758C17.9718 25.0758 17.6082 24.7228 17.6082 24.2844L17.5761 22.0867C17.5761 21.3488 16.9665 20.7606 16.2393 20.7606H11.9615C11.6086 20.7606 11.2663 20.8996 11.0097 21.1563C10.7637 21.4023 10.6247 21.7445 10.6247 22.0974L10.6354 24.2737C10.6354 24.7121 10.2825 25.0758 9.83329 25.0758C9.39481 25.0758 9.0312 24.7228 9.0312 24.2737L9.02051 22.0974C9.02051 21.306 9.31995 20.5681 9.87606 20.012C10.4322 19.4559 11.1701 19.1458 11.9615 19.1458H16.25C17.8648 19.1458 19.1803 20.4612 19.191 22.0653L19.223 24.2523C19.223 24.7121 18.8594 25.0758 18.4103 25.0758Z" fill="#7A88B9"/>
</svg>
