<svg width="28" height="28" viewBox="0 0 28 28" fill="none" xmlns="http://www.w3.org/2000/svg">
<rect x="6" y="15" width="2" height="7" rx="1" fill="white"/>
<rect x="20" y="15" width="2" height="7" rx="1" fill="white"/>
<path fill-rule="evenodd" clip-rule="evenodd" d="M14 1.79529C7.82395 1.79529 2.79999 6.8197 2.79999 12.9953V17.816C2.79999 17.8166 2.80016 17.8171 2.80033 17.8177C2.8005 17.8182 2.80067 17.8188 2.80067 17.8194V19.0713C2.80067 20.3126 3.28597 21.4887 4.15396 22.366L5.44196 23.6633L7.30863 24.2046H7.33666C8.87662 24.2046 10.1367 22.9447 10.1367 21.4046V15.898C10.1367 14.358 8.87662 13.098 7.33666 13.098H7.30863L5.44196 13.6486L4.66665 14.427V12.9953C4.66665 7.84874 8.85389 3.66195 14 3.66195C19.1461 3.66195 23.3333 7.84874 23.3333 12.9953V14.4263L22.5587 13.6486L20.692 13.098H20.664C19.124 13.098 17.864 14.358 17.864 15.898V21.4046C17.864 22.9447 19.124 24.2046 20.664 24.2046H20.692L22.5587 23.6633L23.8467 22.366C24.7147 21.4887 25.2 20.3126 25.2 19.0713V12.9953C25.2 6.8197 20.176 1.79529 14 1.79529ZM6 16C6 15.4477 6.44772 15 7 15C7.55228 15 8 15.4477 8 16V21C8 21.5523 7.55228 22 7 22C6.44772 22 6 21.5523 6 21V16ZM21 15C20.4477 15 20 15.4477 20 16V21C20 21.5523 20.4477 22 21 22C21.5523 22 22 21.5523 22 21V16C22 15.4477 21.5523 15 21 15Z" fill="#F7C530"/>
</svg>
