<svg width="28" height="28" viewBox="0 0 28 28" fill="none" xmlns="http://www.w3.org/2000/svg">
<path d="M4.75 14.0454C4.75 11.284 6.98858 9.04541 9.75 9.04541H10.75C13.5114 9.04541 15.75 11.284 15.75 14.0454V23.0454C15.75 24.15 14.8546 25.0454 13.75 25.0454H6.75C5.64543 25.0454 4.75 24.15 4.75 23.0454V14.0454Z" fill="#EBEFFF"/>
<path d="M8.75 14.5454C8.75 13.717 9.42157 13.0454 10.25 13.0454C11.0784 13.0454 11.75 13.717 11.75 14.5454V17.5454C11.75 18.3738 11.0784 19.0454 10.25 19.0454C9.42157 19.0454 8.75 18.3738 8.75 17.5454V14.5454Z" fill="white"/>
<path fill-rule="evenodd" clip-rule="evenodd" d="M19.4603 3.54185C17.461 2.06089 14.7009 2.16886 12.8234 3.80146C11.6651 4.80872 11 6.26846 11 7.80349V8.08815C14.2366 8.46 16.75 11.2092 16.75 14.5453V18.7953C17.1642 18.7953 17.5 19.1311 17.5 19.5453V22.5453C17.5 22.9596 17.1642 23.2953 16.75 23.2953C16.7466 23.2953 16.7432 23.2953 16.7397 23.2953C16.6127 24.8352 15.3227 26.0453 13.75 26.0453H6.75C5.17731 26.0453 3.88726 24.8352 3.76026 23.2953C3.75685 23.2953 3.75343 23.2953 3.75 23.2953C3.33579 23.2953 3 22.9596 3 22.5453V19.5453C3 19.1311 3.33579 18.7953 3.75 18.7953L3.75 14.5453C3.75 11.2092 6.26342 8.46 9.5 8.08815V7.80349C9.5 5.8343 10.3532 3.9617 11.8392 2.66955C14.2477 0.575195 17.7883 0.436694 20.3531 2.33651L20.5946 2.51543C22.4222 3.86915 23.5 6.00888 23.5 8.28317V10.0452C23.8036 10.2733 24 10.6364 24 11.0453V21.0453C24 21.4543 23.8036 21.8174 23.5 22.0454V23.5453H26C26.4142 23.5453 26.75 23.8811 26.75 24.2953C26.75 24.7096 26.4142 25.0453 26 25.0453H19.5C19.0858 25.0453 18.75 24.7096 18.75 24.2953C18.75 23.8811 19.0858 23.5453 19.5 23.5453H22V22.0454C21.6964 21.8174 21.5 21.4543 21.5 21.0453V11.0453C21.5 10.6364 21.6964 10.2733 22 10.0452V8.28317C22 6.48416 21.1474 4.79159 19.7018 3.72077L19.4603 3.54185ZM15.25 23.0453V14.5453C15.25 11.7839 13.0114 9.54535 10.25 9.54535C7.48858 9.54535 5.25 11.7839 5.25 14.5453V23.0453C5.25 23.8738 5.92157 24.5453 6.75 24.5453H13.75C14.5784 24.5453 15.25 23.8738 15.25 23.0453ZM11.25 17.5453V14.5453C11.25 13.9931 10.8023 13.5453 10.25 13.5453C9.69772 13.5453 9.25 13.9931 9.25 14.5453V17.5453C9.25 18.0976 9.69772 18.5453 10.25 18.5453C10.8023 18.5453 11.25 18.0976 11.25 17.5453ZM10.25 12.0453C8.86929 12.0453 7.75 13.1646 7.75 14.5453V17.5453C7.75 18.9261 8.86929 20.0453 10.25 20.0453C11.6307 20.0453 12.75 18.9261 12.75 17.5453V14.5453C12.75 13.1646 11.6307 12.0453 10.25 12.0453Z" fill="#7A88B9"/>
</svg>
