<svg width="28" height="28" viewBox="0 0 28 28" fill="none" xmlns="http://www.w3.org/2000/svg">
<rect x="1" y="9" width="26" height="10" fill="#F9E3E7"/>
<circle cx="22" cy="14" r="1" fill="white"/>
<path d="M26.5 3C26.5 3.55228 26.0523 4 25.5 4C24.9477 4 24.5 3.55228 24.5 3C24.5 2.44772 24.9477 2 25.5 2C26.0523 2 26.5 2.44772 26.5 3Z" fill="white"/>
<path d="M4 3C4 3.55228 3.55228 4 3 4C2.44772 4 2 3.55228 2 3C2 2.44772 2.44772 2 3 2C3.55228 2 4 2.44772 4 3Z" fill="white"/>
<path d="M15 25.5C15 26.0523 14.5523 26.5 14 26.5C13.4477 26.5 13 26.0523 13 25.5C13 24.9477 13.4477 24.5 14 24.5C14.5523 24.5 15 24.9477 15 25.5Z" fill="white"/>
<rect x="12" y="12" width="4" height="4" rx="1" fill="white"/>
<path d="M4.5 13C4.5 12.4477 4.94772 12 5.5 12H7.5C8.05228 12 8.5 12.4477 8.5 13V15C8.5 15.5523 8.05228 16 7.5 16H5.5C4.94772 16 4.5 15.5523 4.5 15V13Z" fill="white"/>
<path fill-rule="evenodd" clip-rule="evenodd" d="M3 5C1.89565 5 1 4.10435 1 3C1 1.89565 1.89565 1 3 1C4.10435 1 5 1.89565 5 3C5 4.10435 4.10435 5 3 5ZM3 2.29565C2.61739 2.29565 2.30435 2.60869 2.30435 2.9913C2.30435 3.37391 2.61739 3.68696 3 3.68696C3.38261 3.68696 3.69565 3.37391 3.69565 2.9913C3.69565 2.60869 3.38261 2.29565 3 2.29565ZM3 9.5H25C25.8284 9.5 26.5 10.1716 26.5 11V17C26.5 17.8284 25.8284 18.5 25 18.5H3C2.17157 18.5 1.5 17.8284 1.5 17V11C1.5 10.1716 2.17157 9.5 3 9.5ZM0 11C0 9.34315 1.34315 8 3 8H25C26.6569 8 28 9.34315 28 11V17C28 18.6569 26.6569 20 25 20H3C1.34315 20 0 18.6569 0 17V11ZM20 14C20 15.1043 20.8957 16 22 16C23.1043 16 24 15.1043 24 14C24 12.8957 23.1043 12 22 12C20.8957 12 20 12.8957 20 14ZM21.3043 13.9913C21.3043 13.6087 21.6174 13.2957 22 13.2957C22.3826 13.2957 22.6957 13.6087 22.6957 13.9913C22.6957 14.3739 22.3826 14.687 22 14.687C21.6174 14.687 21.3043 14.3739 21.3043 13.9913ZM23.3043 3.0087C23.3043 4.11304 24.2 5.0087 25.3043 5.0087C26.4087 5.0087 27.3043 4.11304 27.3043 3.0087C27.3043 1.90435 26.4087 1.0087 25.3043 1.0087C24.2 1.0087 23.3043 1.90435 23.3043 3.0087ZM24.6087 3C24.6087 2.61739 24.9217 2.30435 25.3043 2.30435C25.687 2.30435 26 2.61739 26 3C26 3.38261 25.687 3.69565 25.3043 3.69565C24.9217 3.69565 24.6087 3.38261 24.6087 3ZM14 27.5C12.8957 27.5 12 26.6043 12 25.5C12 24.3957 12.8957 23.5 14 23.5C15.1043 23.5 16 24.3957 16 25.5C16 26.6043 15.1043 27.5 14 27.5ZM14 24.7957C13.6174 24.7957 13.3043 25.1087 13.3043 25.4913C13.3043 25.8739 13.6174 26.187 14 26.187C14.3826 26.187 14.6957 25.8739 14.6957 25.4913C14.6957 25.1087 14.3826 24.7957 14 24.7957ZM7.3242 12.7L8.3 13.3776V15.3H4.7V13.3776L5.6758 12.7H7.3242ZM3.5 13.273C3.5 12.9454 3.66049 12.6385 3.9296 12.4517L5.04277 11.6786C5.21025 11.5623 5.40927 11.5 5.61317 11.5H7.38683C7.59073 11.5 7.78975 11.5623 7.95723 11.6786L9.0704 12.4517C9.33951 12.6385 9.5 12.9454 9.5 13.273V15.5C9.5 16.0523 9.05228 16.5 8.5 16.5H4.5C3.94772 16.5 3.5 16.0523 3.5 15.5V13.273ZM15.8 13.3776L14.8242 12.7H13.1758L12.2 13.3776V15.3H15.8V13.3776ZM11.4296 12.4517C11.1605 12.6385 11 12.9454 11 13.273V15.5C11 16.0523 11.4477 16.5 12 16.5H16C16.5523 16.5 17 16.0523 17 15.5V13.273C17 12.9454 16.8395 12.6385 16.5704 12.4517L15.4572 11.6786C15.2898 11.5623 15.0907 11.5 14.8868 11.5H13.1132C12.9093 11.5 12.7102 11.5623 12.5428 11.6786L11.4296 12.4517ZM6 2.25C5.58579 2.25 5.25 2.58579 5.25 3C5.25 3.41421 5.58579 3.75 6 3.75H8.75V6.5C8.75 6.91421 9.08579 7.25 9.5 7.25C9.91421 7.25 10.25 6.91421 10.25 6.5V3C10.25 2.58579 9.91421 2.25 9.5 2.25H6ZM22.25 2.25C22.6642 2.25 23 2.58579 23 3C23 3.41421 22.6642 3.75 22.25 3.75H19.5V6.5C19.5 6.91421 19.1642 7.25 18.75 7.25C18.3358 7.25 18 6.91421 18 6.5V3C18 2.58579 18.3358 2.25 18.75 2.25H22.25ZM14.75 21.5C14.75 21.0858 14.4142 20.75 14 20.75C13.5858 20.75 13.25 21.0858 13.25 21.5V22.5C13.25 22.9142 13.5858 23.25 14 23.25C14.4142 23.25 14.75 22.9142 14.75 22.5V21.5Z" fill="#E54F6D"/>
</svg>
