<svg width="28" height="28" viewBox="0 0 28 28" fill="none" xmlns="http://www.w3.org/2000/svg">
<g id="&#217;&#132;&#217;&#136;&#216;&#167;&#216;&#178;&#217;&#133; &#216;&#180;&#216;&#174;&#216;&#181;&#219;&#140; &#217;&#136; &#216;&#179;&#217;&#132;&#216;&#167;&#217;&#133;&#216;&#170; &#217;&#133;&#216;&#173;&#219;&#140;&#216;&#183;">
<path id="Rectangle 8264" d="M21.25 13.0843V9.375L23.35 7.8C23.5148 7.67639 23.75 7.79399 23.75 8V14.1958C23.75 14.3921 23.534 14.5118 23.3675 14.4078L21.25 13.0843Z" stroke="#74C4BA" stroke-width="1.5"/>
<rect id="Rectangle 8265" x="8.91856" y="14.8245" width="3.5" height="9.5" rx="1.75" transform="rotate(-15 8.91856 14.8245)" fill="#D7F8F3" stroke="#74C4BA" stroke-width="1.5"/>
<path id="Rectangle 8262" d="M4.75 10.9864C4.75 7.83654 7.62285 5.46849 10.7148 6.0697L20.2386 7.92155C20.826 8.03576 21.25 8.5502 21.25 9.14857V13.2736C21.25 13.8935 20.7958 14.4197 20.1826 14.5102L10.4904 15.9414C7.46566 16.3881 4.75 14.044 4.75 10.9864Z" fill="#D7F8F3" stroke="#74C4BA" stroke-width="1.5"/>
<path id="Rectangle 8263" d="M8.75 11C8.75 10.0335 9.5335 9.25 10.5 9.25C11.4665 9.25 12.25 10.0335 12.25 11C12.25 11.9665 11.4665 12.75 10.5 12.75C9.5335 12.75 8.75 11.9665 8.75 11Z" stroke="#74C4BA" stroke-width="1.5"/>
</g>
</svg>
