<svg width="28" height="28" viewBox="0 0 28 28" fill="none" xmlns="http://www.w3.org/2000/svg">
<path d="M4 11C4 9.34315 5.34315 8 7 8L20 8C21.6569 8 23 9.34315 23 11L23 17.3611C23 18.8185 21.8185 20 20.3611 20L19.3586 20C18.4548 20 17.7222 19.2674 17.7222 18.3636V18.3636C17.7222 17.4599 16.9896 16.7273 16.0859 16.7273L10.3864 16.7273C9.48262 16.7273 8.75 17.4599 8.75 18.3636V18.3636C8.75 19.2674 8.01738 20 7.11364 20L6.375 20C5.06332 20 4 18.9367 4 17.625L4 11Z" fill="#FFF6DC"/>
<path d="M18.6158 8.96429H8.38485C7.94331 8.96429 7.57715 8.6 7.57715 8.16071V6.01786C7.57715 3.275 8.8587 2 11.6157 2H15.3849C18.1419 2 19.4235 3.275 19.4235 6.01786V8.16071C19.4235 8.6 19.0573 8.96429 18.6158 8.96429ZM9.19255 7.35714H17.8081V6.01786C17.8081 4.19643 17.2157 3.60714 15.3849 3.60714H11.6157C9.78487 3.60714 9.19255 4.19643 9.19255 6.01786V7.35714Z" fill="#EBBE37"/>
<path d="M14.9614 25.1072H12.8075C10.2013 25.1072 8.76898 23.6822 8.76898 21.0893V16.8036C8.76898 16.3643 9.13514 16 9.57669 16H18.1922C18.6337 16 18.9999 16.3643 18.9999 16.8036V21.0893C18.9999 23.6822 17.5676 25.1072 14.9614 25.1072ZM10.3844 17.6072V21.0893C10.3844 22.7822 11.1059 23.5 12.8075 23.5H14.9614C16.6629 23.5 17.3845 22.7822 17.3845 21.0893V17.6072H10.3844Z" fill="#EBBE37"/>
<path d="M19.9618 20.75H18.1921C17.7506 20.75 17.3844 20.3857 17.3844 19.9464V17.5357H10.3987V19.9464C10.3987 20.3857 10.0325 20.75 9.59097 20.75H7.42293C4.81674 20.75 3.38441 19.325 3.38441 16.7321V11.375C3.38441 8.78215 4.81674 7.35715 7.42293 7.35715H19.9618C22.5679 7.35715 24.0003 8.78215 24.0003 11.375V16.7321C24.0003 19.325 22.5679 20.75 19.9618 20.75ZM18.9998 19.1429H19.9618C21.6633 19.1429 22.3849 18.425 22.3849 16.7321V11.375C22.3849 9.68215 21.6633 8.96429 19.9618 8.96429H7.42293C5.72137 8.96429 4.99982 9.68215 4.99982 11.375V16.7321C4.99982 18.425 5.72137 19.1429 7.42293 19.1429H8.78326V16.8522C8.78326 16.4129 9.14942 16.0487 9.59097 16.0487H18.1921C18.6337 16.0487 18.9998 16.4129 18.9998 16.8522V19.1429Z" fill="#EBBE37"/>
<path d="M19.4996 17.6071H8.30734C7.86579 17.6071 7.49963 17.2428 7.49963 16.8035C7.49963 16.3642 7.86579 15.9999 8.30734 15.9999H19.4996C19.9412 15.9999 20.3073 16.3642 20.3073 16.8035C20.3073 17.2428 19.9412 17.6071 19.4996 17.6071Z" fill="#EBBE37"/>
<path d="M11.3467 13.25H8.11587C7.67433 13.25 7.30817 12.8857 7.30817 12.4464C7.30817 12.0071 7.67433 11.6428 8.11587 11.6428H11.3467C11.7882 11.6428 12.1544 12.0071 12.1544 12.4464C12.1544 12.8857 11.7882 13.25 11.3467 13.25Z" fill="#EBBE37"/>
</svg>
