<svg width="28" height="28" viewBox="0 0 28 28" fill="none" xmlns="http://www.w3.org/2000/svg">
<circle cx="14" cy="14" r="7" fill="#D7F8F3"/>
<path fill-rule="evenodd" clip-rule="evenodd" d="M12.3154 5.70991C12.8636 5.59861 13.4265 5.54165 14.0003 5.54165C15.202 5.54165 16.3453 5.78665 17.407 6.25331L17.2087 5.30831C16.7537 3.58165 15.8553 3.20831 14.642 3.20831H13.3703C12.1453 3.20831 11.2353 3.56998 10.7919 5.36665L10.6056 6.25196C11.1482 6.01351 11.7206 5.83043 12.3154 5.70991ZM8.5812 7.50834L9.08861 4.98165C9.68361 2.58998 11.0836 1.45831 13.3703 1.45831H14.642C16.917 1.45831 18.3169 2.58998 18.9119 4.91165L19.4565 7.54001C21.2918 9.09234 22.4584 11.4116 22.4584 14C22.4584 16.5094 21.3709 18.8375 19.4712 20.4544L18.9345 23.0534C18.3162 25.4101 16.9162 26.5418 14.6412 26.5418H13.3695C11.0828 26.5418 9.68284 25.4101 9.08784 23.0651L8.56755 20.4949C6.64235 18.8759 5.54169 16.5234 5.54169 14C5.54169 11.3939 6.72418 9.0607 8.5812 7.50834ZM10.5393 8.25536C8.59464 9.43147 7.29169 11.5668 7.29169 14C7.29169 16.065 8.21335 17.9784 9.83502 19.2617C9.8444 19.2679 9.85295 19.2734 9.86088 19.2784C9.88253 19.2921 9.89961 19.3029 9.91669 19.32C12.285 21.1517 15.7617 21.14 18.1184 19.2967C18.1417 19.2734 18.1767 19.25 18.2 19.2384C19.7984 17.955 20.7084 16.0534 20.7084 14C20.7084 11.4372 19.2629 9.2049 17.1447 8.07573C15.0947 7.00359 12.5334 7.06158 10.5393 8.25536ZM14 22.4584C12.81 22.4584 11.6632 22.2183 10.6059 21.7536L10.7912 22.6801C11.2345 24.4301 12.1445 24.7918 13.3695 24.7918H14.6412C15.8545 24.7918 16.7645 24.4301 17.2195 22.6568L17.4062 21.7469C16.3442 22.2151 15.1936 22.4584 14 22.4584Z" fill="#73C2B8"/>
<path fill-rule="evenodd" clip-rule="evenodd" d="M12.6539 15.6474C12.6337 15.635 12.6145 15.6203 12.5967 15.6033C12.5783 15.585 12.56 15.5675 12.5417 15.55C12.5233 15.5325 12.505 15.515 12.4867 15.4967C12.1433 15.15 11.8333 14.7867 11.5567 14.4067C11.2833 14.0267 11.0633 13.6467 10.9033 13.27C10.7467 12.89 10.6667 12.5267 10.6667 12.18C10.6667 11.9533 10.7067 11.7367 10.7867 11.5367C10.8667 11.3333 10.9933 11.1467 11.17 10.98C11.3833 10.77 11.6167 10.6667 11.8633 10.6667C11.9567 10.6667 12.05 10.6867 12.1333 10.7267C12.22 10.7667 12.2967 10.8267 12.3567 10.9133L13.13 12.0033C13.19 12.0867 13.2333 12.1633 13.2633 12.2367C13.2933 12.3067 13.31 12.3767 13.31 12.44C13.31 12.52 13.2867 12.6 13.24 12.6767C13.1967 12.7533 13.1333 12.8333 13.0533 12.9133L12.8 13.1767C12.7633 13.2133 12.7467 13.2567 12.7467 13.31C12.7467 13.3367 12.75 13.36 12.7567 13.3867C12.7612 13.3989 12.7658 13.4097 12.7701 13.4198C12.7751 13.4317 12.7797 13.4425 12.7833 13.4533C12.8433 13.5633 12.9467 13.7067 13.0933 13.88C13.2433 14.0533 13.4033 14.23 13.5767 14.4067C13.5933 14.4233 13.6108 14.44 13.6283 14.4567C13.6458 14.4733 13.6633 14.49 13.68 14.5067C13.6851 14.5116 13.69 14.5168 13.6948 14.522C13.7462 14.5631 13.8442 14.6441 13.9559 14.7365C14.1933 14.9327 14.4923 15.1798 14.5365 15.203C14.5456 15.2066 14.5556 15.2112 14.5665 15.2162C14.5758 15.2205 14.5858 15.2251 14.5965 15.2297C14.6232 15.2397 14.6499 15.243 14.6799 15.243C14.7365 15.243 14.7799 15.223 14.8165 15.1863L15.0699 14.9363C15.1532 14.853 15.2332 14.7897 15.3099 14.7497C15.3865 14.703 15.4632 14.6797 15.5465 14.6797C15.6099 14.6797 15.6765 14.693 15.7499 14.723C15.8232 14.753 15.8999 14.7963 15.9832 14.853L17.0865 15.6363C17.1732 15.6963 17.2332 15.7663 17.2699 15.8497C17.3032 15.933 17.3232 16.0163 17.3232 16.1097C17.3232 16.203 17.3065 16.2997 17.2732 16.393C17.2632 16.4197 17.2532 16.4463 17.2399 16.473C17.1832 16.593 17.1099 16.7063 17.0132 16.813C16.8499 16.993 16.6699 17.123 16.4665 17.2063C16.4649 17.2063 16.4632 17.2072 16.4615 17.208C16.4599 17.2088 16.4582 17.2097 16.4565 17.2097C16.2599 17.2897 16.0465 17.333 15.8165 17.333C15.4765 17.333 15.1132 17.253 14.7299 17.0897C14.3465 16.9263 13.9632 16.7063 13.5832 16.4297C13.4713 16.3465 12.9965 15.9647 12.6539 15.6474Z" fill="#73C2B8"/>
</svg>
