<svg width="28" height="28" viewBox="0 0 28 28" fill="none" xmlns="http://www.w3.org/2000/svg">
<ellipse cx="20.5" cy="14" rx="1.5" ry="2" fill="#F8F8F8"/>
<ellipse cx="7.5" cy="14" rx="1.5" ry="2" fill="#F8F8F8"/>
<rect x="1" y="9" width="26" height="10" rx="2" fill="#F0E8F8"/>
<path fill-rule="evenodd" clip-rule="evenodd" d="M4 9.5H24C25.3807 9.5 26.5 10.6193 26.5 12V16C26.5 17.3807 25.3807 18.5 24 18.5H4C2.61929 18.5 1.5 17.3807 1.5 16V12C1.5 10.6193 2.61929 9.5 4 9.5ZM0 12C0 9.79086 1.79086 8 4 8H24C26.2091 8 28 9.79086 28 12V16C28 18.2091 26.2091 20 24 20H4C1.79086 20 0 18.2091 0 16V12ZM5 14C5 15.3804 6.11957 16.5 7.5 16.5C8.88043 16.5 10 15.3804 10 14C10 12.6196 8.88043 11.5 7.5 11.5C6.11957 11.5 5 12.6196 5 14ZM6.63043 13.9891C6.63043 13.5109 7.02174 13.1196 7.5 13.1196C7.97826 13.1196 8.36957 13.5109 8.36957 13.9891C8.36957 14.4674 7.97826 14.8587 7.5 14.8587C7.02174 14.8587 6.63043 14.4674 6.63043 13.9891ZM20.5 16.5C19.1196 16.5 18 15.3804 18 14C18 12.6196 19.1196 11.5 20.5 11.5C21.8804 11.5 23 12.6196 23 14C23 15.3804 21.8804 16.5 20.5 16.5ZM20.5 13.1196C20.0217 13.1196 19.6304 13.5109 19.6304 13.9891C19.6304 14.4674 20.0217 14.8587 20.5 14.8587C20.9783 14.8587 21.3696 14.4674 21.3696 13.9891C21.3696 13.5109 20.9783 13.1196 20.5 13.1196ZM14.75 12C14.75 11.5858 14.4142 11.25 14 11.25C13.5858 11.25 13.25 11.5858 13.25 12V16C13.25 16.4142 13.5858 16.75 14 16.75C14.4142 16.75 14.75 16.4142 14.75 16V12Z" fill="#AF89D0"/>
</svg>
