<svg xmlns="http://www.w3.org/2000/svg" width="66" height="66" fill="none"><path stroke="#9C9D9E" stroke-width="2" d="m17.615 21.556 42.024-.077.06 32.296a3 3 0 0 1-2.995 3.006l-36.024.066a3 3 0 0 1-3.006-2.995l-.059-32.296ZM59.481 21.464l-41.772.034 6.156-10.967A3 3 0 0 1 26.481 9h24.242a3 3 0 0 1 2.616 1.53l6.142 10.934Z"/><path stroke="#9C9D9E" stroke-width="1.8" d="m34.223 21.418 8.762.002-.003 11.897a1.1 1.1 0 0 1-1.1 1.1l-6.562-.001a1.1 1.1 0 0 1-1.1-1.1l.003-11.898Z"/><path stroke="#9C9D9E" stroke-width="1.8" d="m41.05 8.988 1.796 12.574h-8.485l1.797-12.574a.1.1 0 0 1 .099-.086h4.693a.1.1 0 0 1 .1.086Z"/><rect width="11.355" height="4.928" x="23.248" y="45.709" stroke="#9C9D9E" stroke-width="1.5" rx="1.25"/><path stroke="#9C9D9E" stroke-linecap="round" stroke-width="1.5" d="M24.961 31.64H.75M20.141 41.282H3.964M21.748 26.427h-9.749M21.748 36.461H10.393M13.713 46.102H8.785"/><path fill="#9C9D9E" stroke="#9C9D9E" stroke-width=".6" d="M48.245 51.37a1.384 1.384 0 0 1-1.204-.741l-2.096-3.83a.482.482 0 0 0-.205-.206l-3.83-2.065a1.409 1.409 0 0 1 .252-2.584l9.98-3.33a1.416 1.416 0 0 1 1.807 1.806l-3.355 9.986a1.391 1.391 0 0 1-1.204.958l-.145.006Zm3.156-11.896-9.98 3.331a.506.506 0 0 0-.084.928l3.83 2.066c.244.129.443.328.573.572l2.047 3.83a.5.5 0 0 0 .488.265.506.506 0 0 0 .44-.349l3.349-9.98a.505.505 0 0 0-.663-.663Z"/><path fill="#9C9D9E" stroke="#9C9D9E" stroke-width=".4" d="M45.181 46.81a.429.429 0 0 1-.32-.132.447.447 0 0 1 0-.638l7.084-7.108a.468.468 0 1 1 .662.663L45.5 46.678a.445.445 0 0 1-.319.133Z"/></svg>