<svg xmlns="http://www.w3.org/2000/svg" width="66" height="66" fill="none"><path fill="#9C9D9E" stroke="#FCFEFF" stroke-width=".7" d="m8.407 42.021 15.15-27.276c2.464-4.434 5.816-6.795 9.444-6.795 3.628 0 6.98 2.36 9.444 6.795l15.15 27.275.306-.17-.306.17c2.337 4.206 2.571 8.168.755 11.227-1.818 3.061-5.405 4.803-10.199 4.803h-30.3c-4.793 0-8.38-1.741-10.198-4.802-1.793-3.061-1.581-7.049.754-11.227ZM26.22 16.229v.002L11.094 43.505c-1.729 3.102-2.06 6.044-.797 8.22l.001.002c1.266 2.155 4.02 3.298 7.577 3.298h30.3c3.557 0 6.286-1.118 7.576-3.296l.002-.003c1.264-2.178.931-5.094-.796-8.22L39.781 16.23v-.001c-1.848-3.29-4.24-5.229-6.78-5.229s-4.933 1.938-6.781 5.229Z"/><path fill="#9C9D9E" d="M11.166 53.67c.176-.077.316-.123.436-.194.17-.096.329-.206.476-.327.528-.454 1.065-.901 1.564-1.377 4.08-3.889 8.688-7.252 13.634-10.28 1.585-.97 3.213-1.88 4.819-2.824.272-.16.547-.332.776-.535.376-.335.324-.728-.088-.931a1.066 1.066 0 0 0-.408-.113 1.306 1.306 0 0 0-.451.045c-.769.205-1.494.522-2.212.853-1.61.74-3.164 1.57-4.702 2.428a148.02 148.02 0 0 0-7.965 4.775c-1.876 1.206-3.722 2.447-5.439 3.83-.789.636-1.547 1.297-2.17 2.056-.277.338-.503.692-.617 1.085-.226.788.445 1.907 1.786 1.65.207-.04.406-.102.561-.142Z"/><path fill="#9C9D9E" d="M54.514 53.994c-.178-.078-.32-.125-.441-.198a3.4 3.4 0 0 1-.481-.332c-.535-.462-1.078-.917-1.582-1.4-4.126-3.951-8.788-7.373-13.794-10.456-1.603-.987-3.251-1.915-4.876-2.877a5.002 5.002 0 0 1-.785-.545c-.38-.34-.327-.737.091-.941a1.08 1.08 0 0 1 .414-.113c.15-.011.306.005.457.047.778.211 1.513.535 2.24.873 1.629.755 3.202 1.601 4.76 2.475a150.286 150.286 0 0 1 8.06 4.863c1.899 1.228 3.767 2.49 5.503 3.897.798.647 1.565 1.319 2.194 2.089.28.343.508.702.623 1.1.227.799-.456 1.929-1.815 1.663-.209-.042-.41-.105-.568-.145Z"/><path fill="#9C9D9E" d="M33.405 9.904c.04.194.084.338.095.482.02.2.023.398.01.594-.066.713-.12 1.429-.22 2.13-.819 5.73-.894 11.597-.493 17.552.129 1.908.332 3.818.493 5.728.028.325.047.657.013.97-.055.514-.41.701-.82.473a1.099 1.099 0 0 1-.333-.278 1.367 1.367 0 0 1-.227-.407c-.28-.77-.445-1.569-.592-2.369-.333-1.793-.559-3.594-.753-5.396-.342-3.18-.584-6.356-.728-9.53-.105-2.293-.163-4.58-.027-6.843.062-1.04.164-2.068.425-3.04.117-.433.276-.832.534-1.16.518-.654 1.836-.745 2.41.538.088.198.154.402.213.556Z"/></svg>