<svg xmlns="http://www.w3.org/2000/svg" width="66" height="66" fill="none"><path fill="#9C9D9E" fill-rule="evenodd" stroke="#9C9D9E" stroke-width=".3" d="M11.492 43.466h-.226A6.316 6.316 0 0 1 4.95 37.15v-4.908a6.316 6.316 0 0 1 6.316-6.316h2.207v-.054C13.473 15.228 22.1 6.6 32.744 6.6c10.644 0 19.272 8.628 19.272 19.272v.054h2.207a6.316 6.316 0 0 1 6.316 6.316v4.908a6.316 6.316 0 0 1-6.316 6.316h-3.06a1.101 1.101 0 0 1-1.101-1.101V25.87c0-9.563-7.753-17.317-17.318-17.317-9.564 0-17.317 7.754-17.317 17.318v16.493a1.101 1.101 0 0 1-1.1 1.1h-.88c.05 6.183 5.076 11.178 11.268 11.178h1.891a4.615 4.615 0 0 1 4.51-3.637h3.257a4.614 4.614 0 0 1 0 9.228h-3.257a4.616 4.616 0 0 1-4.51-3.637h-1.89c-7.273 0-13.175-5.87-13.224-13.131ZM37.033 55.62a2.66 2.66 0 0 0-2.66-2.66h-3.257a2.66 2.66 0 0 0 0 5.32h3.257a2.66 2.66 0 0 0 2.66-2.66Zm-23.56-27.74h-2.207a4.362 4.362 0 0 0-4.362 4.362v4.908a4.362 4.362 0 0 0 4.362 4.361h2.207v-13.63Zm38.543 0v13.631h2.207a4.362 4.362 0 0 0 4.362-4.361v-4.908a4.362 4.362 0 0 0-4.362-4.362h-2.207Z" clip-rule="evenodd"/></svg>